%TF.GenerationSoftware,Altium Limited,Altium Designer,21.9.2 (33)*%
G04 Layer_Color=16711935*
%FSLAX45Y45*%
%MOMM*%
%TF.SameCoordinates,43275E26-CB7C-43E4-9740-FE9D7F4F9AB3*%
%TF.FilePolarity,Positive*%
%TF.FileFunction,Other,Top_Assembly*%
%TF.Part,Single*%
G01*
G75*
%TA.AperFunction,NonConductor*%
%ADD60C,0.20000*%
G36*
X1936719Y1310830D02*
X1937366D01*
X1939122Y1310645D01*
X1941064Y1310368D01*
X1943098Y1309905D01*
X1945317Y1309351D01*
X1947351Y1308611D01*
X1947443D01*
X1947628Y1308519D01*
X1947906Y1308334D01*
X1948276Y1308149D01*
X1949200Y1307686D01*
X1950402Y1306854D01*
X1951789Y1305930D01*
X1953176Y1304728D01*
X1954470Y1303341D01*
X1955672Y1301769D01*
Y1301677D01*
X1955764Y1301584D01*
X1955949Y1301307D01*
X1956134Y1301030D01*
X1956597Y1300105D01*
X1957151Y1298903D01*
X1957798Y1297424D01*
X1958261Y1295667D01*
X1958723Y1293818D01*
X1958908Y1291784D01*
X1950772Y1291137D01*
Y1291229D01*
Y1291414D01*
X1950679Y1291692D01*
X1950587Y1292154D01*
X1950310Y1293171D01*
X1949940Y1294558D01*
X1949385Y1296037D01*
X1948553Y1297516D01*
X1947536Y1298903D01*
X1946241Y1300198D01*
X1946057Y1300290D01*
X1945594Y1300660D01*
X1944670Y1301215D01*
X1943468Y1301769D01*
X1941896Y1302324D01*
X1940047Y1302879D01*
X1937736Y1303249D01*
X1935147Y1303341D01*
X1933852D01*
X1933298Y1303249D01*
X1932558Y1303156D01*
X1930894Y1302971D01*
X1929045Y1302601D01*
X1927196Y1302139D01*
X1925439Y1301399D01*
X1924699Y1300937D01*
X1923960Y1300475D01*
X1923775Y1300382D01*
X1923405Y1300013D01*
X1922850Y1299365D01*
X1922295Y1298626D01*
X1921648Y1297609D01*
X1921093Y1296499D01*
X1920724Y1295205D01*
X1920539Y1293726D01*
Y1293541D01*
Y1293171D01*
X1920631Y1292524D01*
X1920816Y1291784D01*
X1921093Y1290859D01*
X1921556Y1289935D01*
X1922110Y1289010D01*
X1922943Y1288086D01*
X1923035Y1287993D01*
X1923497Y1287716D01*
X1923867Y1287439D01*
X1924237Y1287254D01*
X1924792Y1286976D01*
X1925439Y1286607D01*
X1926271Y1286329D01*
X1927196Y1285959D01*
X1928213Y1285590D01*
X1929414Y1285127D01*
X1930709Y1284757D01*
X1932188Y1284295D01*
X1933852Y1283925D01*
X1935701Y1283463D01*
X1935794D01*
X1936164Y1283371D01*
X1936719Y1283278D01*
X1937366Y1283093D01*
X1938198Y1282908D01*
X1939215Y1282631D01*
X1940232Y1282354D01*
X1941341Y1282076D01*
X1943745Y1281429D01*
X1946057Y1280782D01*
X1947166Y1280412D01*
X1948183Y1280042D01*
X1949108Y1279765D01*
X1949847Y1279395D01*
X1949940D01*
X1950125Y1279302D01*
X1950402Y1279118D01*
X1950772Y1278933D01*
X1951789Y1278378D01*
X1952991Y1277638D01*
X1954378Y1276621D01*
X1955764Y1275512D01*
X1957059Y1274217D01*
X1958168Y1272831D01*
X1958261Y1272646D01*
X1958631Y1272183D01*
X1959000Y1271351D01*
X1959555Y1270242D01*
X1960017Y1268947D01*
X1960480Y1267376D01*
X1960757Y1265619D01*
X1960850Y1263770D01*
Y1263677D01*
Y1263585D01*
Y1263308D01*
Y1262938D01*
X1960665Y1261921D01*
X1960480Y1260626D01*
X1960110Y1259147D01*
X1959648Y1257575D01*
X1958908Y1255911D01*
X1957891Y1254154D01*
Y1254062D01*
X1957798Y1253970D01*
X1957336Y1253415D01*
X1956689Y1252583D01*
X1955764Y1251658D01*
X1954563Y1250549D01*
X1953083Y1249347D01*
X1951419Y1248237D01*
X1949477Y1247220D01*
X1949385D01*
X1949200Y1247128D01*
X1948923Y1247035D01*
X1948553Y1246850D01*
X1947998Y1246666D01*
X1947351Y1246388D01*
X1945872Y1246018D01*
X1944115Y1245556D01*
X1941988Y1245094D01*
X1939677Y1244816D01*
X1937181Y1244724D01*
X1935701D01*
X1934962Y1244816D01*
X1934130D01*
X1933205Y1244909D01*
X1932096Y1245001D01*
X1929784Y1245371D01*
X1927380Y1245741D01*
X1924977Y1246388D01*
X1922665Y1247220D01*
X1922573D01*
X1922388Y1247313D01*
X1922110Y1247498D01*
X1921741Y1247683D01*
X1920631Y1248237D01*
X1919337Y1249069D01*
X1917857Y1250179D01*
X1916286Y1251473D01*
X1914806Y1253045D01*
X1913420Y1254802D01*
Y1254894D01*
X1913235Y1255079D01*
X1913142Y1255356D01*
X1912865Y1255726D01*
X1912680Y1256188D01*
X1912403Y1256743D01*
X1911755Y1258130D01*
X1911108Y1259887D01*
X1910553Y1261828D01*
X1910184Y1264047D01*
X1909999Y1266359D01*
X1917950Y1267098D01*
Y1267006D01*
Y1266913D01*
X1918042Y1266636D01*
Y1266266D01*
X1918227Y1265434D01*
X1918505Y1264232D01*
X1918874Y1263030D01*
X1919244Y1261643D01*
X1919892Y1260349D01*
X1920539Y1259147D01*
X1920631Y1259055D01*
X1920909Y1258685D01*
X1921371Y1258038D01*
X1922110Y1257390D01*
X1923035Y1256558D01*
X1924052Y1255726D01*
X1925439Y1254894D01*
X1926918Y1254154D01*
X1927011D01*
X1927103Y1254062D01*
X1927380Y1253970D01*
X1927658Y1253877D01*
X1928582Y1253600D01*
X1929784Y1253230D01*
X1931264Y1252860D01*
X1932928Y1252583D01*
X1934777Y1252398D01*
X1936811Y1252305D01*
X1937643D01*
X1938568Y1252398D01*
X1939677Y1252490D01*
X1940971Y1252675D01*
X1942451Y1252860D01*
X1943930Y1253230D01*
X1945317Y1253692D01*
X1945502Y1253785D01*
X1945964Y1253970D01*
X1946611Y1254339D01*
X1947443Y1254709D01*
X1948276Y1255356D01*
X1949200Y1256004D01*
X1950125Y1256743D01*
X1950864Y1257668D01*
X1950957Y1257760D01*
X1951142Y1258130D01*
X1951419Y1258592D01*
X1951789Y1259332D01*
X1952159Y1260072D01*
X1952436Y1260996D01*
X1952621Y1262013D01*
X1952713Y1263123D01*
Y1263215D01*
Y1263677D01*
X1952621Y1264232D01*
X1952528Y1264972D01*
X1952251Y1265711D01*
X1951974Y1266636D01*
X1951511Y1267561D01*
X1950864Y1268393D01*
X1950772Y1268485D01*
X1950494Y1268763D01*
X1950125Y1269132D01*
X1949477Y1269687D01*
X1948738Y1270242D01*
X1947721Y1270889D01*
X1946519Y1271536D01*
X1945132Y1272091D01*
X1945040Y1272183D01*
X1944577Y1272276D01*
X1943838Y1272553D01*
X1943375Y1272646D01*
X1942728Y1272831D01*
X1942081Y1273108D01*
X1941249Y1273293D01*
X1940324Y1273570D01*
X1939215Y1273848D01*
X1938105Y1274125D01*
X1936811Y1274495D01*
X1935332Y1274865D01*
X1933760Y1275234D01*
X1933667D01*
X1933390Y1275327D01*
X1932928Y1275419D01*
X1932373Y1275604D01*
X1931633Y1275789D01*
X1930801Y1275974D01*
X1928952Y1276529D01*
X1926918Y1277176D01*
X1924792Y1277823D01*
X1922943Y1278470D01*
X1922110Y1278840D01*
X1921371Y1279210D01*
X1921278D01*
X1921186Y1279302D01*
X1920631Y1279672D01*
X1919799Y1280135D01*
X1918874Y1280874D01*
X1917765Y1281706D01*
X1916656Y1282723D01*
X1915546Y1283925D01*
X1914622Y1285220D01*
X1914529Y1285405D01*
X1914252Y1285867D01*
X1913882Y1286607D01*
X1913512Y1287531D01*
X1913142Y1288733D01*
X1912772Y1290120D01*
X1912495Y1291599D01*
X1912403Y1293171D01*
Y1293263D01*
Y1293356D01*
Y1293633D01*
Y1294003D01*
X1912587Y1294928D01*
X1912772Y1296129D01*
X1913050Y1297516D01*
X1913512Y1299088D01*
X1914159Y1300660D01*
X1915084Y1302232D01*
Y1302324D01*
X1915176Y1302416D01*
X1915639Y1302971D01*
X1916286Y1303711D01*
X1917118Y1304635D01*
X1918227Y1305652D01*
X1919614Y1306762D01*
X1921278Y1307779D01*
X1923127Y1308704D01*
X1923220D01*
X1923405Y1308796D01*
X1923682Y1308888D01*
X1924052Y1309073D01*
X1924514Y1309258D01*
X1925162Y1309443D01*
X1926548Y1309813D01*
X1928305Y1310183D01*
X1930339Y1310553D01*
X1932466Y1310830D01*
X1934869Y1310922D01*
X1936071D01*
X1936719Y1310830D01*
D02*
G37*
G36*
X2031393Y1245833D02*
X2023072D01*
X2009666Y1294558D01*
Y1294650D01*
X2009574Y1294835D01*
X2009481Y1295112D01*
X2009389Y1295575D01*
X2009112Y1296592D01*
X2008834Y1297794D01*
X2008464Y1299088D01*
X2008095Y1300290D01*
X2007817Y1301307D01*
X2007725Y1301769D01*
X2007632Y1302047D01*
Y1301954D01*
X2007540Y1301862D01*
X2007447Y1301307D01*
X2007262Y1300475D01*
X2006985Y1299458D01*
X2006708Y1298348D01*
X2006338Y1297054D01*
X2006061Y1295760D01*
X2005691Y1294558D01*
X1992192Y1245833D01*
X1983316D01*
X1966582Y1309813D01*
X1975365D01*
X1984888Y1267838D01*
Y1267745D01*
X1984981Y1267561D01*
X1985073Y1267191D01*
X1985165Y1266728D01*
X1985258Y1266081D01*
X1985443Y1265434D01*
X1985628Y1264602D01*
X1985813Y1263677D01*
X1986275Y1261736D01*
X1986737Y1259517D01*
X1987199Y1257113D01*
X1987662Y1254709D01*
Y1254802D01*
X1987754Y1255171D01*
X1987939Y1255634D01*
X1988032Y1256373D01*
X1988216Y1257113D01*
X1988494Y1258038D01*
X1988956Y1260072D01*
X1989511Y1262106D01*
X1989696Y1263123D01*
X1989973Y1264047D01*
X1990158Y1264879D01*
X1990343Y1265619D01*
X1990528Y1266174D01*
X1990620Y1266544D01*
X2002732Y1309813D01*
X2012995D01*
X2022055Y1277361D01*
Y1277268D01*
X2022240Y1276806D01*
X2022425Y1276159D01*
X2022610Y1275327D01*
X2022887Y1274217D01*
X2023257Y1273015D01*
X2023627Y1271629D01*
X2023997Y1270057D01*
X2024459Y1268300D01*
X2024829Y1266544D01*
X2025661Y1262753D01*
X2026493Y1258777D01*
X2027140Y1254709D01*
Y1254802D01*
X2027233Y1254987D01*
Y1255356D01*
X2027418Y1255819D01*
X2027510Y1256373D01*
X2027695Y1257021D01*
X2027788Y1257853D01*
X2028065Y1258777D01*
X2028527Y1260811D01*
X2029082Y1263215D01*
X2029637Y1265804D01*
X2030376Y1268670D01*
X2040362Y1309813D01*
X2048960D01*
X2031393Y1245833D01*
D02*
G37*
G36*
X2083261D02*
X2075403D01*
Y1295852D01*
X2075310Y1295760D01*
X2074848Y1295390D01*
X2074293Y1294835D01*
X2073368Y1294188D01*
X2072351Y1293356D01*
X2071057Y1292431D01*
X2069578Y1291414D01*
X2067914Y1290397D01*
X2067821D01*
X2067729Y1290305D01*
X2067174Y1289935D01*
X2066249Y1289473D01*
X2065140Y1288918D01*
X2063846Y1288271D01*
X2062459Y1287624D01*
X2061072Y1286976D01*
X2059685Y1286422D01*
Y1294003D01*
X2059777D01*
X2059962Y1294188D01*
X2060332Y1294280D01*
X2060794Y1294558D01*
X2061349Y1294835D01*
X2061996Y1295205D01*
X2063568Y1296129D01*
X2065417Y1297147D01*
X2067266Y1298441D01*
X2069208Y1299920D01*
X2071150Y1301492D01*
X2071242Y1301584D01*
X2071334Y1301677D01*
X2071612Y1301954D01*
X2071982Y1302232D01*
X2072814Y1303156D01*
X2073923Y1304266D01*
X2075033Y1305560D01*
X2076235Y1307039D01*
X2077252Y1308519D01*
X2078176Y1310090D01*
X2083261D01*
Y1245833D01*
D02*
G37*
G36*
X3261964Y2508758D02*
X3262149Y2508573D01*
X3262518Y2508203D01*
X3263073Y2507833D01*
X3263720Y2507279D01*
X3264460Y2506539D01*
X3265385Y2505799D01*
X3266494Y2504967D01*
X3267604Y2504135D01*
X3268898Y2503118D01*
X3270377Y2502101D01*
X3271857Y2501084D01*
X3273521Y2499975D01*
X3275277Y2498865D01*
X3277219Y2497756D01*
X3279161Y2496646D01*
X3279253Y2496554D01*
X3279623Y2496369D01*
X3280178Y2496092D01*
X3281010Y2495629D01*
X3282027Y2495167D01*
X3283136Y2494612D01*
X3284431Y2493965D01*
X3285910Y2493318D01*
X3287574Y2492578D01*
X3289238Y2491746D01*
X3291087Y2491006D01*
X3293029Y2490267D01*
X3297005Y2488788D01*
X3301258Y2487401D01*
X3301350D01*
X3301627Y2487308D01*
X3302090Y2487216D01*
X3302644Y2487031D01*
X3303384Y2486846D01*
X3304309Y2486661D01*
X3305326Y2486384D01*
X3306435Y2486199D01*
X3307729Y2485921D01*
X3309116Y2485644D01*
X3312075Y2485182D01*
X3315311Y2484719D01*
X3318824Y2484442D01*
Y2476398D01*
X3318732D01*
X3318454D01*
X3318085D01*
X3317530Y2476491D01*
X3316790D01*
X3315866Y2476583D01*
X3314849Y2476676D01*
X3313739Y2476768D01*
X3312445Y2476953D01*
X3311150Y2477138D01*
X3309579Y2477415D01*
X3308007Y2477693D01*
X3306343Y2477970D01*
X3304494Y2478340D01*
X3300703Y2479265D01*
X3300610D01*
X3300241Y2479357D01*
X3299686Y2479542D01*
X3298854Y2479819D01*
X3297929Y2480097D01*
X3296820Y2480466D01*
X3295525Y2480836D01*
X3294138Y2481391D01*
X3292567Y2481946D01*
X3290995Y2482500D01*
X3287482Y2483887D01*
X3283783Y2485552D01*
X3280085Y2487401D01*
X3279993Y2487493D01*
X3279623Y2487678D01*
X3279161Y2487955D01*
X3278421Y2488325D01*
X3277589Y2488788D01*
X3276572Y2489435D01*
X3275462Y2490082D01*
X3274260Y2490822D01*
X3271579Y2492578D01*
X3268806Y2494427D01*
X3265939Y2496554D01*
X3263258Y2498773D01*
Y2467430D01*
X3255677D01*
Y2508850D01*
X3261871D01*
X3261964Y2508758D01*
D02*
G37*
G36*
X3318824Y2420000D02*
X3254845D01*
Y2428506D01*
X3311243D01*
Y2460034D01*
X3318824D01*
Y2420000D01*
D02*
G37*
G36*
X3163592Y2411494D02*
X3107193D01*
Y2379966D01*
X3099612D01*
Y2420000D01*
X3163592D01*
Y2411494D01*
D02*
G37*
G36*
X3131232Y2373402D02*
X3132526D01*
X3134006Y2373309D01*
X3135762Y2373125D01*
X3137704Y2372940D01*
X3139830Y2372662D01*
X3141957Y2372292D01*
X3144268Y2371830D01*
X3146487Y2371275D01*
X3148706Y2370628D01*
X3150833Y2369796D01*
X3152867Y2368872D01*
X3154808Y2367855D01*
X3156472Y2366653D01*
X3156565Y2366560D01*
X3156750Y2366375D01*
X3157120Y2366005D01*
X3157674Y2365543D01*
X3158229Y2364988D01*
X3158784Y2364249D01*
X3159524Y2363324D01*
X3160171Y2362400D01*
X3160818Y2361290D01*
X3161558Y2360088D01*
X3162112Y2358701D01*
X3162759Y2357315D01*
X3163222Y2355743D01*
X3163592Y2354079D01*
X3163777Y2352322D01*
X3163869Y2350473D01*
Y2349733D01*
X3163777Y2349178D01*
Y2348531D01*
X3163684Y2347792D01*
X3163314Y2346035D01*
X3162852Y2344093D01*
X3162112Y2342059D01*
X3161003Y2340025D01*
X3160356Y2339008D01*
X3159616Y2338084D01*
X3159524Y2337991D01*
X3159431Y2337899D01*
X3159154Y2337621D01*
X3158876Y2337344D01*
X3158414Y2336882D01*
X3157859Y2336512D01*
X3156565Y2335495D01*
X3154901Y2334478D01*
X3152867Y2333553D01*
X3150555Y2332721D01*
X3147967Y2332167D01*
X3147319Y2340025D01*
X3147412D01*
X3147504Y2340118D01*
X3148059Y2340210D01*
X3148891Y2340488D01*
X3149908Y2340857D01*
X3151018Y2341227D01*
X3152127Y2341782D01*
X3153144Y2342429D01*
X3153976Y2343076D01*
X3154161Y2343261D01*
X3154531Y2343631D01*
X3155086Y2344278D01*
X3155733Y2345203D01*
X3156288Y2346405D01*
X3156842Y2347699D01*
X3157212Y2349271D01*
X3157397Y2350935D01*
Y2351582D01*
X3157305Y2352322D01*
X3157120Y2353154D01*
X3156842Y2354264D01*
X3156472Y2355373D01*
X3156010Y2356482D01*
X3155271Y2357592D01*
X3155178Y2357777D01*
X3154808Y2358239D01*
X3154161Y2358886D01*
X3153237Y2359718D01*
X3152127Y2360643D01*
X3150833Y2361660D01*
X3149168Y2362585D01*
X3147319Y2363509D01*
X3147227D01*
X3147042Y2363602D01*
X3146765Y2363694D01*
X3146395Y2363879D01*
X3145840Y2363971D01*
X3145193Y2364156D01*
X3144453Y2364341D01*
X3143529Y2364526D01*
X3142512Y2364803D01*
X3141402Y2364988D01*
X3140200Y2365173D01*
X3138906Y2365266D01*
X3137427Y2365451D01*
X3135947Y2365543D01*
X3134283Y2365636D01*
X3132619D01*
X3132711Y2365543D01*
X3133266Y2365173D01*
X3134006Y2364526D01*
X3134930Y2363694D01*
X3136040Y2362769D01*
X3137057Y2361568D01*
X3138074Y2360273D01*
X3138998Y2358794D01*
Y2358701D01*
X3139091Y2358609D01*
X3139368Y2358054D01*
X3139645Y2357222D01*
X3140108Y2356113D01*
X3140478Y2354818D01*
X3140755Y2353339D01*
X3141032Y2351767D01*
X3141125Y2350103D01*
Y2349363D01*
X3141032Y2348809D01*
X3140940Y2348069D01*
X3140847Y2347329D01*
X3140663Y2346405D01*
X3140385Y2345480D01*
X3139738Y2343354D01*
X3139276Y2342244D01*
X3138628Y2341135D01*
X3137981Y2340025D01*
X3137242Y2338823D01*
X3136317Y2337714D01*
X3135300Y2336697D01*
X3135208Y2336604D01*
X3135023Y2336420D01*
X3134745Y2336142D01*
X3134283Y2335865D01*
X3133636Y2335402D01*
X3132989Y2334940D01*
X3132157Y2334478D01*
X3131232Y2333923D01*
X3130215Y2333368D01*
X3129106Y2332906D01*
X3127811Y2332444D01*
X3126517Y2331982D01*
X3125130Y2331704D01*
X3123558Y2331427D01*
X3121986Y2331242D01*
X3120322Y2331150D01*
X3120230D01*
X3120045D01*
X3119767D01*
X3119305D01*
X3118750Y2331242D01*
X3118196D01*
X3116716Y2331519D01*
X3114960Y2331797D01*
X3113111Y2332259D01*
X3111077Y2332906D01*
X3109135Y2333831D01*
X3109043D01*
X3108950Y2333923D01*
X3108673Y2334108D01*
X3108303Y2334293D01*
X3107378Y2334848D01*
X3106176Y2335680D01*
X3104882Y2336697D01*
X3103588Y2337899D01*
X3102293Y2339378D01*
X3101184Y2340950D01*
Y2341042D01*
X3101091Y2341135D01*
X3100906Y2341412D01*
X3100814Y2341782D01*
X3100352Y2342707D01*
X3099889Y2343908D01*
X3099335Y2345480D01*
X3098965Y2347237D01*
X3098595Y2349178D01*
X3098503Y2351305D01*
Y2351767D01*
X3098595Y2352229D01*
Y2352969D01*
X3098687Y2353801D01*
X3098872Y2354726D01*
X3099150Y2355835D01*
X3099427Y2356945D01*
X3099797Y2358239D01*
X3100259Y2359534D01*
X3100814Y2360828D01*
X3101554Y2362215D01*
X3102386Y2363509D01*
X3103310Y2364803D01*
X3104420Y2366098D01*
X3105714Y2367300D01*
X3105807Y2367392D01*
X3106084Y2367577D01*
X3106454Y2367855D01*
X3107101Y2368224D01*
X3107933Y2368779D01*
X3108858Y2369241D01*
X3110060Y2369796D01*
X3111354Y2370351D01*
X3112926Y2370998D01*
X3114682Y2371553D01*
X3116624Y2372015D01*
X3118750Y2372477D01*
X3121154Y2372940D01*
X3123743Y2373217D01*
X3126517Y2373402D01*
X3129475Y2373494D01*
X3129568D01*
X3129660D01*
X3129938D01*
X3130307D01*
X3131232Y2373402D01*
D02*
G37*
G36*
X2334662Y1231495D02*
X2278264D01*
Y1199968D01*
X2270683D01*
Y1240001D01*
X2334662D01*
Y1231495D01*
D02*
G37*
G36*
X2288619Y1185175D02*
X2288527D01*
X2288342Y1185082D01*
X2287972Y1184990D01*
X2287510Y1184897D01*
X2286955Y1184805D01*
X2286308Y1184620D01*
X2284921Y1184158D01*
X2283257Y1183510D01*
X2281685Y1182678D01*
X2280205Y1181754D01*
X2278911Y1180644D01*
X2278819Y1180459D01*
X2278449Y1180090D01*
X2277987Y1179350D01*
X2277524Y1178425D01*
X2276970Y1177316D01*
X2276507Y1175929D01*
X2276137Y1174357D01*
X2276045Y1172693D01*
Y1172138D01*
X2276137Y1171769D01*
X2276230Y1170752D01*
X2276507Y1169457D01*
X2276970Y1167978D01*
X2277617Y1166406D01*
X2278541Y1164834D01*
X2279836Y1163355D01*
X2280021Y1163170D01*
X2280575Y1162708D01*
X2281407Y1162153D01*
X2282517Y1161413D01*
X2283904Y1160674D01*
X2285475Y1160119D01*
X2287325Y1159657D01*
X2289359Y1159472D01*
X2289451D01*
X2289636D01*
X2289913D01*
X2290283Y1159564D01*
X2291300Y1159657D01*
X2292502Y1159934D01*
X2293981Y1160304D01*
X2295461Y1160951D01*
X2296940Y1161876D01*
X2298327Y1163078D01*
X2298512Y1163263D01*
X2298882Y1163725D01*
X2299436Y1164465D01*
X2300084Y1165482D01*
X2300731Y1166776D01*
X2301285Y1168348D01*
X2301655Y1170104D01*
X2301840Y1172046D01*
Y1172878D01*
X2301748Y1173525D01*
X2301655Y1174357D01*
X2301470Y1175282D01*
X2301285Y1176391D01*
X2301008Y1177593D01*
X2307942Y1176669D01*
Y1176206D01*
X2307850Y1175837D01*
Y1174635D01*
X2308035Y1173618D01*
X2308220Y1172416D01*
X2308497Y1171029D01*
X2308959Y1169457D01*
X2309607Y1167978D01*
X2310439Y1166406D01*
Y1166314D01*
X2310531Y1166221D01*
X2310901Y1165759D01*
X2311548Y1165112D01*
X2312380Y1164372D01*
X2313582Y1163632D01*
X2314969Y1162985D01*
X2316541Y1162523D01*
X2317465Y1162338D01*
X2318482D01*
X2318575D01*
X2318667D01*
X2319222D01*
X2319962Y1162523D01*
X2320979Y1162708D01*
X2322088Y1163078D01*
X2323290Y1163540D01*
X2324492Y1164280D01*
X2325601Y1165297D01*
X2325694Y1165389D01*
X2326064Y1165851D01*
X2326526Y1166499D01*
X2327081Y1167331D01*
X2327543Y1168440D01*
X2328005Y1169735D01*
X2328375Y1171214D01*
X2328468Y1172878D01*
Y1173618D01*
X2328283Y1174450D01*
X2328098Y1175559D01*
X2327728Y1176761D01*
X2327266Y1177963D01*
X2326526Y1179257D01*
X2325601Y1180459D01*
X2325509Y1180552D01*
X2325047Y1180922D01*
X2324399Y1181476D01*
X2323475Y1182124D01*
X2322273Y1182771D01*
X2320794Y1183418D01*
X2319037Y1183973D01*
X2317003Y1184343D01*
X2318390Y1192201D01*
X2318482D01*
X2318760Y1192109D01*
X2319129Y1192016D01*
X2319684Y1191924D01*
X2320331Y1191739D01*
X2321071Y1191462D01*
X2322828Y1190907D01*
X2324862Y1189982D01*
X2326896Y1188873D01*
X2328837Y1187486D01*
X2330594Y1185729D01*
X2330686Y1185637D01*
X2330779Y1185452D01*
X2330964Y1185175D01*
X2331241Y1184805D01*
X2331611Y1184343D01*
X2331981Y1183695D01*
X2332351Y1183048D01*
X2332813Y1182216D01*
X2333553Y1180367D01*
X2334292Y1178240D01*
X2334755Y1175744D01*
X2334939Y1174450D01*
Y1172138D01*
X2334847Y1171121D01*
X2334662Y1169919D01*
X2334385Y1168440D01*
X2333922Y1166776D01*
X2333368Y1165112D01*
X2332628Y1163448D01*
Y1163355D01*
X2332536Y1163263D01*
X2332258Y1162708D01*
X2331703Y1161876D01*
X2331056Y1160951D01*
X2330132Y1159842D01*
X2329115Y1158732D01*
X2327913Y1157623D01*
X2326526Y1156698D01*
X2326341Y1156606D01*
X2325879Y1156328D01*
X2325047Y1155959D01*
X2324030Y1155496D01*
X2322828Y1155034D01*
X2321441Y1154664D01*
X2319869Y1154387D01*
X2318297Y1154294D01*
X2318112D01*
X2317558D01*
X2316818Y1154387D01*
X2315801Y1154572D01*
X2314599Y1154849D01*
X2313305Y1155311D01*
X2312010Y1155866D01*
X2310716Y1156606D01*
X2310531Y1156698D01*
X2310161Y1156976D01*
X2309514Y1157530D01*
X2308774Y1158270D01*
X2307942Y1159195D01*
X2307018Y1160304D01*
X2306186Y1161598D01*
X2305354Y1163170D01*
Y1163078D01*
X2305261Y1162893D01*
X2305169Y1162615D01*
X2305076Y1162246D01*
X2304706Y1161229D01*
X2304152Y1159934D01*
X2303412Y1158455D01*
X2302487Y1156976D01*
X2301285Y1155589D01*
X2299899Y1154294D01*
X2299714Y1154202D01*
X2299159Y1153832D01*
X2298234Y1153277D01*
X2297032Y1152723D01*
X2295553Y1152168D01*
X2293797Y1151613D01*
X2291762Y1151243D01*
X2289544Y1151151D01*
X2289451D01*
X2289174D01*
X2288711D01*
X2288157Y1151243D01*
X2287417Y1151336D01*
X2286585Y1151521D01*
X2285660Y1151706D01*
X2284643Y1151891D01*
X2282424Y1152630D01*
X2281223Y1153185D01*
X2280113Y1153740D01*
X2278911Y1154479D01*
X2277709Y1155311D01*
X2276507Y1156236D01*
X2275398Y1157345D01*
X2275305Y1157438D01*
X2275120Y1157623D01*
X2274843Y1157993D01*
X2274473Y1158455D01*
X2274011Y1159010D01*
X2273549Y1159749D01*
X2272994Y1160581D01*
X2272532Y1161598D01*
X2271977Y1162615D01*
X2271422Y1163817D01*
X2270960Y1165019D01*
X2270498Y1166406D01*
X2270128Y1167885D01*
X2269850Y1169457D01*
X2269666Y1171029D01*
X2269573Y1172786D01*
Y1173618D01*
X2269666Y1174172D01*
X2269758Y1174912D01*
X2269850Y1175744D01*
X2270035Y1176669D01*
X2270220Y1177686D01*
X2270775Y1179905D01*
X2271700Y1182216D01*
X2272254Y1183418D01*
X2272901Y1184527D01*
X2273734Y1185637D01*
X2274566Y1186746D01*
X2274658Y1186839D01*
X2274843Y1187024D01*
X2275120Y1187301D01*
X2275490Y1187579D01*
X2275953Y1188041D01*
X2276600Y1188503D01*
X2277247Y1189058D01*
X2278079Y1189613D01*
X2279004Y1190167D01*
X2279928Y1190722D01*
X2282147Y1191739D01*
X2284736Y1192571D01*
X2286123Y1192849D01*
X2287602Y1193033D01*
X2288619Y1185175D01*
D02*
G37*
G36*
X2525087Y1231495D02*
X2468689D01*
Y1199968D01*
X2461108D01*
Y1240001D01*
X2525087D01*
Y1231495D01*
D02*
G37*
G36*
X2478490Y1184897D02*
X2478397D01*
X2478212D01*
X2477935Y1184805D01*
X2477473Y1184712D01*
X2476456Y1184435D01*
X2475069Y1184065D01*
X2473682Y1183510D01*
X2472110Y1182771D01*
X2470723Y1181846D01*
X2469429Y1180737D01*
X2469336Y1180552D01*
X2468967Y1180182D01*
X2468504Y1179442D01*
X2467950Y1178425D01*
X2467395Y1177316D01*
X2466933Y1175929D01*
X2466563Y1174357D01*
X2466470Y1172601D01*
Y1172046D01*
X2466563Y1171676D01*
X2466655Y1170567D01*
X2467025Y1169272D01*
X2467487Y1167700D01*
X2468227Y1166129D01*
X2469336Y1164465D01*
X2469984Y1163725D01*
X2470723Y1162985D01*
X2470816Y1162893D01*
X2470908Y1162800D01*
X2471186Y1162615D01*
X2471463Y1162338D01*
X2472480Y1161691D01*
X2473774Y1160951D01*
X2475346Y1160304D01*
X2477288Y1159657D01*
X2479599Y1159195D01*
X2480801Y1159010D01*
X2482095D01*
X2482188D01*
X2482373D01*
X2482743D01*
X2483205Y1159102D01*
X2483760D01*
X2484407Y1159195D01*
X2485886Y1159472D01*
X2487643Y1159934D01*
X2489399Y1160581D01*
X2491064Y1161506D01*
X2492635Y1162800D01*
X2492728D01*
X2492820Y1162985D01*
X2493283Y1163448D01*
X2493930Y1164280D01*
X2494669Y1165389D01*
X2495317Y1166868D01*
X2495964Y1168533D01*
X2496426Y1170474D01*
X2496611Y1171584D01*
Y1173340D01*
X2496519Y1174080D01*
X2496426Y1175005D01*
X2496149Y1176114D01*
X2495871Y1177223D01*
X2495409Y1178425D01*
X2494854Y1179627D01*
X2494762Y1179720D01*
X2494577Y1180090D01*
X2494115Y1180644D01*
X2493652Y1181384D01*
X2493005Y1182124D01*
X2492173Y1182863D01*
X2491341Y1183695D01*
X2490324Y1184343D01*
X2491341Y1191739D01*
X2524255Y1185544D01*
Y1153740D01*
X2516766D01*
Y1179350D01*
X2499477Y1182771D01*
X2499570Y1182678D01*
X2499662Y1182493D01*
X2499847Y1182216D01*
X2500124Y1181754D01*
X2500402Y1181199D01*
X2500771Y1180552D01*
X2501511Y1179073D01*
X2502251Y1177223D01*
X2502898Y1175189D01*
X2503360Y1172970D01*
X2503545Y1171861D01*
Y1169827D01*
X2503453Y1169272D01*
X2503360Y1168533D01*
X2503268Y1167700D01*
X2503083Y1166776D01*
X2502806Y1165759D01*
X2502158Y1163540D01*
X2501696Y1162338D01*
X2501049Y1161136D01*
X2500402Y1159934D01*
X2499662Y1158732D01*
X2498737Y1157623D01*
X2497720Y1156513D01*
X2497628Y1156421D01*
X2497443Y1156236D01*
X2497166Y1155959D01*
X2496703Y1155589D01*
X2496056Y1155126D01*
X2495409Y1154664D01*
X2494577Y1154109D01*
X2493652Y1153555D01*
X2492635Y1153092D01*
X2491526Y1152538D01*
X2490231Y1152075D01*
X2488937Y1151613D01*
X2487550Y1151243D01*
X2485979Y1150966D01*
X2484407Y1150781D01*
X2482743Y1150689D01*
X2482650D01*
X2482373D01*
X2481910D01*
X2481263Y1150781D01*
X2480524Y1150873D01*
X2479692Y1150966D01*
X2478674Y1151151D01*
X2477657Y1151336D01*
X2475254Y1151891D01*
X2472757Y1152815D01*
X2471463Y1153370D01*
X2470261Y1154109D01*
X2468967Y1154849D01*
X2467765Y1155774D01*
X2467672Y1155866D01*
X2467395Y1156051D01*
X2467025Y1156421D01*
X2466563Y1156883D01*
X2466008Y1157530D01*
X2465268Y1158270D01*
X2464621Y1159195D01*
X2463882Y1160212D01*
X2463142Y1161321D01*
X2462495Y1162615D01*
X2461848Y1164002D01*
X2461200Y1165482D01*
X2460738Y1167053D01*
X2460368Y1168810D01*
X2460091Y1170659D01*
X2459998Y1172601D01*
Y1173433D01*
X2460091Y1174080D01*
X2460183Y1174820D01*
X2460276Y1175652D01*
X2460368Y1176669D01*
X2460646Y1177686D01*
X2461200Y1179997D01*
X2462032Y1182309D01*
X2462587Y1183510D01*
X2463234Y1184712D01*
X2463974Y1185822D01*
X2464806Y1186931D01*
X2464899Y1187024D01*
X2464991Y1187209D01*
X2465361Y1187394D01*
X2465731Y1187763D01*
X2466193Y1188226D01*
X2466748Y1188688D01*
X2467487Y1189243D01*
X2468319Y1189705D01*
X2469152Y1190260D01*
X2470169Y1190814D01*
X2472387Y1191831D01*
X2474976Y1192664D01*
X2476363Y1192941D01*
X2477842Y1193126D01*
X2478490Y1184897D01*
D02*
G37*
G36*
X1847490Y698849D02*
X1848137Y698756D01*
X1848969Y698664D01*
X1849894Y698479D01*
X1850911Y698202D01*
X1853037Y697554D01*
X1854239Y697092D01*
X1855349Y696445D01*
X1856551Y695798D01*
X1857660Y695058D01*
X1858769Y694133D01*
X1859879Y693116D01*
X1859971Y693024D01*
X1860156Y692839D01*
X1860434Y692562D01*
X1860711Y692099D01*
X1861173Y691452D01*
X1861636Y690805D01*
X1862098Y689973D01*
X1862653Y689048D01*
X1863207Y688031D01*
X1863670Y686829D01*
X1864132Y685535D01*
X1864594Y684241D01*
X1864872Y682761D01*
X1865149Y681190D01*
X1865334Y679618D01*
X1865426Y677861D01*
Y676937D01*
X1865334Y676289D01*
X1865241Y675457D01*
X1865149Y674533D01*
X1864964Y673516D01*
X1864687Y672406D01*
X1864039Y669910D01*
X1863577Y668616D01*
X1863115Y667414D01*
X1862468Y666119D01*
X1861728Y664825D01*
X1860896Y663623D01*
X1859879Y662514D01*
X1859786Y662421D01*
X1859602Y662236D01*
X1859324Y661959D01*
X1858862Y661589D01*
X1858307Y661219D01*
X1857660Y660664D01*
X1856920Y660202D01*
X1855996Y659647D01*
X1855071Y659093D01*
X1853962Y658630D01*
X1851650Y657706D01*
X1850264Y657336D01*
X1848877Y657059D01*
X1847397Y656874D01*
X1845918Y656781D01*
X1845826D01*
X1845641D01*
X1845271D01*
X1844901Y656874D01*
X1844346D01*
X1843699Y656966D01*
X1842220Y657151D01*
X1840556Y657521D01*
X1838891Y658076D01*
X1837135Y658908D01*
X1835471Y659925D01*
X1835378D01*
X1835286Y660110D01*
X1834823Y660480D01*
X1834084Y661219D01*
X1833159Y662236D01*
X1832235Y663531D01*
X1831218Y665102D01*
X1830385Y666859D01*
X1829738Y668985D01*
Y668893D01*
X1829646Y668801D01*
X1829553Y668523D01*
X1829368Y668153D01*
X1828999Y667321D01*
X1828444Y666212D01*
X1827704Y665010D01*
X1826780Y663808D01*
X1825763Y662698D01*
X1824653Y661681D01*
X1824468Y661589D01*
X1824098Y661312D01*
X1823359Y660942D01*
X1822434Y660572D01*
X1821232Y660110D01*
X1819845Y659740D01*
X1818274Y659462D01*
X1816610Y659370D01*
X1816517D01*
X1816332D01*
X1815962D01*
X1815408Y659462D01*
X1814853Y659555D01*
X1814113Y659647D01*
X1812541Y660017D01*
X1810692Y660572D01*
X1808751Y661497D01*
X1807734Y662051D01*
X1806717Y662698D01*
X1805792Y663531D01*
X1804868Y664363D01*
X1804775Y664455D01*
X1804683Y664640D01*
X1804405Y664917D01*
X1804128Y665287D01*
X1803758Y665749D01*
X1803388Y666397D01*
X1802926Y667136D01*
X1802464Y667876D01*
X1802001Y668801D01*
X1801539Y669818D01*
X1801169Y670927D01*
X1800800Y672129D01*
X1800245Y674718D01*
X1800152Y676197D01*
X1800060Y677676D01*
Y678508D01*
X1800152Y679063D01*
X1800245Y679803D01*
X1800337Y680635D01*
X1800430Y681559D01*
X1800707Y682484D01*
X1801262Y684703D01*
X1802094Y686922D01*
X1802649Y688031D01*
X1803296Y689141D01*
X1804128Y690158D01*
X1804960Y691175D01*
X1805053Y691267D01*
X1805145Y691360D01*
X1805422Y691637D01*
X1805792Y692007D01*
X1806347Y692377D01*
X1806902Y692839D01*
X1808288Y693764D01*
X1810045Y694688D01*
X1812079Y695520D01*
X1814391Y696168D01*
X1815593Y696260D01*
X1816887Y696352D01*
X1816979D01*
X1817072D01*
X1817627D01*
X1818459Y696260D01*
X1819476Y696075D01*
X1820770Y695798D01*
X1822064Y695335D01*
X1823359Y694781D01*
X1824653Y693949D01*
X1824838Y693856D01*
X1825208Y693486D01*
X1825763Y692932D01*
X1826502Y692192D01*
X1827334Y691175D01*
X1828167Y689973D01*
X1828999Y688586D01*
X1829738Y686922D01*
Y687014D01*
X1829831Y687199D01*
X1829923Y687477D01*
X1830108Y687846D01*
X1830570Y688956D01*
X1831218Y690250D01*
X1832142Y691637D01*
X1833159Y693116D01*
X1834454Y694503D01*
X1835933Y695798D01*
X1836025D01*
X1836118Y695890D01*
X1836672Y696260D01*
X1837597Y696815D01*
X1838799Y697369D01*
X1840278Y697924D01*
X1842035Y698479D01*
X1843976Y698849D01*
X1846103Y698941D01*
X1846195D01*
X1846473D01*
X1846935D01*
X1847490Y698849D01*
D02*
G37*
G36*
X1864317Y609999D02*
X1800337D01*
Y618504D01*
X1856735D01*
Y650032D01*
X1864317D01*
Y609999D01*
D02*
G37*
%LPC*%
G36*
X3120322Y2364434D02*
X3120137D01*
X3119675D01*
X3118843Y2364341D01*
X3117826Y2364249D01*
X3116624Y2364064D01*
X3115330Y2363694D01*
X3113943Y2363324D01*
X3112556Y2362769D01*
X3112371Y2362677D01*
X3111909Y2362400D01*
X3111261Y2362030D01*
X3110429Y2361475D01*
X3109597Y2360828D01*
X3108580Y2359996D01*
X3107748Y2359071D01*
X3106916Y2357962D01*
X3106824Y2357777D01*
X3106639Y2357407D01*
X3106269Y2356760D01*
X3105992Y2355928D01*
X3105622Y2355003D01*
X3105252Y2353894D01*
X3105067Y2352692D01*
X3104974Y2351397D01*
Y2350935D01*
X3105067Y2350565D01*
X3105159Y2349641D01*
X3105437Y2348439D01*
X3105992Y2347144D01*
X3106639Y2345665D01*
X3107656Y2344186D01*
X3108210Y2343446D01*
X3108950Y2342799D01*
X3109043D01*
X3109135Y2342614D01*
X3109690Y2342244D01*
X3110614Y2341689D01*
X3111816Y2340950D01*
X3113388Y2340303D01*
X3115237Y2339748D01*
X3117364Y2339378D01*
X3119860Y2339193D01*
X3119952D01*
X3120137D01*
X3120507D01*
X3120969Y2339286D01*
X3121524D01*
X3122171Y2339378D01*
X3123651Y2339655D01*
X3125315Y2340025D01*
X3127071Y2340672D01*
X3128736Y2341597D01*
X3130307Y2342799D01*
X3130492Y2342984D01*
X3130955Y2343446D01*
X3131509Y2344186D01*
X3132249Y2345203D01*
X3132989Y2346497D01*
X3133543Y2347977D01*
X3134006Y2349733D01*
X3134191Y2351675D01*
Y2352229D01*
X3134098Y2352599D01*
X3134006Y2353524D01*
X3133728Y2354818D01*
X3133266Y2356205D01*
X3132526Y2357777D01*
X3131602Y2359256D01*
X3130307Y2360735D01*
X3130123Y2360920D01*
X3129660Y2361290D01*
X3128828Y2361937D01*
X3127626Y2362585D01*
X3126239Y2363232D01*
X3124483Y2363879D01*
X3122541Y2364249D01*
X3120322Y2364434D01*
D02*
G37*
G36*
X1816794Y688309D02*
X1816702D01*
X1816610D01*
X1816055D01*
X1815223Y688124D01*
X1814206Y687939D01*
X1813096Y687569D01*
X1811894Y687014D01*
X1810692Y686275D01*
X1809490Y685258D01*
X1809398Y685165D01*
X1809028Y684703D01*
X1808566Y684056D01*
X1808011Y683224D01*
X1807456Y682114D01*
X1806994Y680912D01*
X1806624Y679433D01*
X1806532Y677861D01*
Y677122D01*
X1806717Y676289D01*
X1806902Y675180D01*
X1807271Y673978D01*
X1807734Y672684D01*
X1808473Y671482D01*
X1809490Y670280D01*
X1809583Y670187D01*
X1809953Y669818D01*
X1810600Y669355D01*
X1811432Y668893D01*
X1812449Y668338D01*
X1813651Y667876D01*
X1814945Y667506D01*
X1816425Y667414D01*
X1816517D01*
X1816610D01*
X1817164Y667506D01*
X1817996Y667599D01*
X1819013Y667784D01*
X1820215Y668153D01*
X1821417Y668616D01*
X1822712Y669355D01*
X1823821Y670280D01*
X1823914Y670372D01*
X1824283Y670835D01*
X1824746Y671482D01*
X1825208Y672314D01*
X1825763Y673423D01*
X1826225Y674718D01*
X1826595Y676197D01*
X1826687Y677861D01*
Y678046D01*
X1826595Y678601D01*
X1826502Y679433D01*
X1826317Y680542D01*
X1825948Y681744D01*
X1825485Y682946D01*
X1824746Y684241D01*
X1823821Y685350D01*
X1823729Y685443D01*
X1823266Y685812D01*
X1822712Y686275D01*
X1821880Y686829D01*
X1820863Y687384D01*
X1819661Y687846D01*
X1818274Y688216D01*
X1816794Y688309D01*
D02*
G37*
G36*
X1846195Y690898D02*
X1846103D01*
X1845918D01*
X1845641D01*
X1845271Y690805D01*
X1844254Y690713D01*
X1842867Y690435D01*
X1841480Y689973D01*
X1839908Y689326D01*
X1838337Y688401D01*
X1836857Y687107D01*
X1836672Y686922D01*
X1836303Y686460D01*
X1835655Y685628D01*
X1834916Y684518D01*
X1834269Y683131D01*
X1833621Y681467D01*
X1833252Y679618D01*
X1833067Y677584D01*
Y677029D01*
X1833159Y676659D01*
X1833252Y675642D01*
X1833529Y674348D01*
X1833991Y672869D01*
X1834638Y671389D01*
X1835563Y669818D01*
X1836765Y668431D01*
X1836950Y668246D01*
X1837412Y667876D01*
X1838244Y667321D01*
X1839261Y666674D01*
X1840648Y665934D01*
X1842220Y665380D01*
X1843976Y665010D01*
X1845918Y664825D01*
X1846103D01*
X1846473D01*
X1847120Y664917D01*
X1847952Y665010D01*
X1848969Y665195D01*
X1850079Y665472D01*
X1851188Y665842D01*
X1852390Y666304D01*
X1852482Y666397D01*
X1852945Y666582D01*
X1853499Y666951D01*
X1854147Y667506D01*
X1854979Y668153D01*
X1855811Y668985D01*
X1856551Y669910D01*
X1857290Y671019D01*
X1857383Y671204D01*
X1857568Y671574D01*
X1857845Y672221D01*
X1858122Y673054D01*
X1858400Y674071D01*
X1858677Y675272D01*
X1858862Y676567D01*
X1858954Y677861D01*
Y678416D01*
X1858862Y678786D01*
X1858769Y679895D01*
X1858492Y681190D01*
X1858030Y682669D01*
X1857475Y684241D01*
X1856551Y685720D01*
X1855349Y687199D01*
X1855164Y687384D01*
X1854701Y687754D01*
X1853869Y688401D01*
X1852852Y689048D01*
X1851558Y689696D01*
X1849986Y690343D01*
X1848137Y690713D01*
X1846195Y690898D01*
D02*
G37*
%LPD*%
D60*
X1690000Y1389725D02*
X2130000D01*
Y1099725D02*
Y1389725D01*
X1690000Y1099725D02*
X2130000D01*
X1690000D02*
Y1389725D01*
X3256376Y2331376D02*
Y2508624D01*
X3343624D01*
Y2331376D02*
Y2508624D01*
X3256376Y2331376D02*
X3343624D01*
X3160951D02*
Y2508624D01*
X3073704Y2331376D02*
X3160951D01*
X3073704D02*
Y2508624D01*
X3160951D01*
X2327075Y1130000D02*
Y1350000D01*
X2212075Y1130000D02*
X2327075D01*
X2212075D02*
Y1350000D01*
X2327075D01*
X2517500Y1130000D02*
Y1350000D01*
X2402500Y1130000D02*
X2517500D01*
X2402500D02*
Y1350000D01*
X2517500D01*
X1807925Y500000D02*
X1922925D01*
Y720000D01*
X1807925D02*
X1922925D01*
X1807925Y500000D02*
Y720000D01*
%TF.MD5,260bcd73888090ac90b93e2b9772571d*%
M02*
