%TF.GenerationSoftware,Altium Limited,Altium Designer,21.9.2 (33)*%
G04 Layer_Color=8388736*
%FSLAX45Y45*%
%MOMM*%
%TF.SameCoordinates,43275E26-CB7C-43E4-9740-FE9D7F4F9AB3*%
%TF.FilePolarity,Negative*%
%TF.FileFunction,Soldermask,Top*%
%TF.Part,Single*%
G01*
G75*
%TA.AperFunction,SMDPad,CuDef*%
%ADD22R,0.80000X1.70000*%
%ADD27R,0.40000X0.55000*%
%ADD29R,0.57247X0.61535*%
%ADD31R,0.70000X0.65000*%
%TA.AperFunction,ViaPad*%
%ADD56C,0.30000*%
%TA.AperFunction,SMDPad,CuDef*%
%ADD66C,0.60320*%
%TA.AperFunction,ViaPad*%
%ADD67C,1.00320*%
%ADD68C,1.72720*%
%TA.AperFunction,ComponentPad*%
%ADD69C,1.70320*%
%ADD70R,1.70320X1.70320*%
%TA.AperFunction,ViaPad*%
%ADD71C,0.60320*%
%ADD72C,0.40320*%
%TA.AperFunction,SMDPad,CuDef*%
%ADD78C,1.20320*%
%ADD79R,1.15320X1.00320*%
%ADD80O,0.74000X0.39000*%
%ADD81O,0.39000X0.74000*%
%ADD82R,3.65320X3.65320*%
%ADD83R,1.12820X0.50320*%
%ADD84R,0.50320X1.00320*%
%TA.AperFunction,BGAPad,CuDef*%
%ADD85C,0.33000*%
%TA.AperFunction,SMDPad,CuDef*%
%ADD86R,1.40320X2.00320*%
%ADD87R,2.00320X1.20320*%
%ADD88R,0.80320X0.90320*%
%ADD89R,1.70320X1.70320*%
G04:AMPARAMS|DCode=90|XSize=1.14mm|YSize=1.74mm|CornerRadius=0.32mm|HoleSize=0mm|Usage=FLASHONLY|Rotation=90.000|XOffset=0mm|YOffset=0mm|HoleType=Round|Shape=RoundedRectangle|*
%AMROUNDEDRECTD90*
21,1,1.14000,1.10000,0,0,90.0*
21,1,0.50000,1.74000,0,0,90.0*
1,1,0.64000,0.55000,0.25000*
1,1,0.64000,0.55000,-0.25000*
1,1,0.64000,-0.55000,-0.25000*
1,1,0.64000,-0.55000,0.25000*
%
%ADD90ROUNDEDRECTD90*%
G04:AMPARAMS|DCode=91|XSize=0.59mm|YSize=0.44mm|CornerRadius=0.145mm|HoleSize=0mm|Usage=FLASHONLY|Rotation=90.000|XOffset=0mm|YOffset=0mm|HoleType=Round|Shape=RoundedRectangle|*
%AMROUNDEDRECTD91*
21,1,0.59000,0.15000,0,0,90.0*
21,1,0.30000,0.44000,0,0,90.0*
1,1,0.29000,0.07500,0.15000*
1,1,0.29000,0.07500,-0.15000*
1,1,0.29000,-0.07500,-0.15000*
1,1,0.29000,-0.07500,0.15000*
%
%ADD91ROUNDEDRECTD91*%
%TA.AperFunction,BGAPad,CuDef*%
%ADD92R,0.60320X0.60320*%
%TA.AperFunction,SMDPad,CuDef*%
%ADD93R,0.70320X0.90320*%
%ADD94R,2.50320X1.05320*%
%TA.AperFunction,ConnectorPad*%
%ADD95R,2.50320X1.05320*%
%ADD96R,1.15320X1.00320*%
%TA.AperFunction,SMDPad,CuDef*%
%ADD97R,1.25320X1.15320*%
%TA.AperFunction,BGAPad,CuDef*%
%ADD98C,0.35320*%
%TA.AperFunction,ConnectorPad*%
%ADD99R,1.25320X1.15320*%
G36*
X155000Y1797500D02*
Y1922500D01*
X295000D01*
X325000Y1892500D01*
Y1797500D01*
X155000D01*
D02*
G37*
D22*
X1740000Y1244725D02*
D03*
X2080000D02*
D03*
D27*
X240000Y1860000D02*
D03*
X320000Y1745000D02*
D03*
X240000D02*
D03*
X160000D02*
D03*
X320000Y1975000D02*
D03*
X240000D02*
D03*
X160000D02*
D03*
D29*
X3300000Y2377144D02*
D03*
Y2462856D02*
D03*
X3117327Y2462856D02*
D03*
Y2377144D02*
D03*
D31*
X2269575Y1307500D02*
D03*
Y1172500D02*
D03*
X2460000Y1307500D02*
D03*
Y1172500D02*
D03*
X1865425Y677500D02*
D03*
Y542500D02*
D03*
D56*
X3469849Y2900000D02*
D03*
D66*
X1680000Y1670000D02*
D03*
X420000Y1810000D02*
D03*
X450000Y1890000D02*
D03*
D67*
X280000Y2650000D02*
D03*
X3410000Y2240000D02*
D03*
X350000Y390000D02*
D03*
X3070000Y640000D02*
D03*
D68*
X3170000Y480000D02*
D03*
X110000Y110000D02*
D03*
D69*
X156000Y2840000D02*
D03*
X410000D02*
D03*
X664000D02*
D03*
X918000D02*
D03*
X1172000D02*
D03*
X1426000D02*
D03*
X1680000D02*
D03*
D70*
X1934000D02*
D03*
D71*
X3910003Y560002D02*
D03*
X3860003Y460002D02*
D03*
X3910003Y360002D02*
D03*
X3860003Y260002D02*
D03*
X3910003Y160001D02*
D03*
X3860003Y60001D02*
D03*
X3810003Y560002D02*
D03*
X3760003Y460002D02*
D03*
X3810003Y360002D02*
D03*
X3760003Y260002D02*
D03*
X3810003Y160001D02*
D03*
X3760003Y60001D02*
D03*
X3660003Y660002D02*
D03*
X3710003Y360002D02*
D03*
X3660003Y260002D02*
D03*
X3710003Y160001D02*
D03*
X3660003Y60001D02*
D03*
X3560003Y660002D02*
D03*
X3610003Y360002D02*
D03*
X3560003Y260002D02*
D03*
X3610003Y160001D02*
D03*
X3560003Y60001D02*
D03*
X3510003Y960002D02*
D03*
X3460003Y660002D02*
D03*
X3510003Y560002D02*
D03*
X3460003Y460002D02*
D03*
X3510003Y160001D02*
D03*
X3460003Y60001D02*
D03*
X3410003Y960002D02*
D03*
X3360003Y660002D02*
D03*
X3410003Y560002D02*
D03*
X3360003Y460002D02*
D03*
X3410003Y160001D02*
D03*
X3360003Y60001D02*
D03*
X3310003Y960002D02*
D03*
X3260003Y660002D02*
D03*
X3310003Y560002D02*
D03*
Y360002D02*
D03*
Y160001D02*
D03*
X3260003Y60001D02*
D03*
X3210003Y960002D02*
D03*
X3160003Y660002D02*
D03*
X3210003Y360002D02*
D03*
Y160001D02*
D03*
X3160003Y60001D02*
D03*
X3110003Y360002D02*
D03*
Y160001D02*
D03*
X3060003Y60001D02*
D03*
X3010003Y360002D02*
D03*
Y160001D02*
D03*
X2960003Y60001D02*
D03*
X2910003Y960002D02*
D03*
Y160001D02*
D03*
X2860003Y60001D02*
D03*
X2810003Y960002D02*
D03*
Y360002D02*
D03*
Y160001D02*
D03*
X2760003Y60001D02*
D03*
X2710003Y960002D02*
D03*
X2660003Y460002D02*
D03*
X2710003Y360002D02*
D03*
Y160001D02*
D03*
X2660003Y60001D02*
D03*
X2610003Y360002D02*
D03*
Y160001D02*
D03*
X2560003Y60001D02*
D03*
X2460003Y460002D02*
D03*
X2510003Y360002D02*
D03*
Y160001D02*
D03*
X2460003Y60001D02*
D03*
X2410003Y360002D02*
D03*
Y160001D02*
D03*
X2160003Y60001D02*
D03*
X2060002Y2860003D02*
D03*
X1960002Y460002D02*
D03*
X1860002D02*
D03*
X1910002Y360002D02*
D03*
Y160001D02*
D03*
X1760002Y460002D02*
D03*
X1660002D02*
D03*
Y60001D02*
D03*
X1560002Y2860003D02*
D03*
Y460002D02*
D03*
X1510002Y960002D02*
D03*
X1460002Y460002D02*
D03*
Y60001D02*
D03*
X1410002Y1360002D02*
D03*
Y360002D02*
D03*
Y160001D02*
D03*
X1360002Y60001D02*
D03*
X1260002Y2660003D02*
D03*
Y1860002D02*
D03*
X1310002Y960002D02*
D03*
X1260002Y60001D02*
D03*
X1160002Y2660003D02*
D03*
Y1860002D02*
D03*
X1210002Y1760002D02*
D03*
Y960002D02*
D03*
Y360002D02*
D03*
Y160001D02*
D03*
X1160002Y60001D02*
D03*
X1060002Y2660003D02*
D03*
Y1460002D02*
D03*
X1110002Y1360002D02*
D03*
X1060002Y1060002D02*
D03*
X1110002Y960002D02*
D03*
X1060002Y60001D02*
D03*
X1010002Y2760003D02*
D03*
X960002Y2660003D02*
D03*
X1010002Y2560003D02*
D03*
X960002Y1460002D02*
D03*
X1010002Y960002D02*
D03*
X960002Y60001D02*
D03*
X910002Y1760002D02*
D03*
Y1560002D02*
D03*
X860002Y1460002D02*
D03*
Y1060002D02*
D03*
X910002Y960002D02*
D03*
X810002Y2760003D02*
D03*
X760002Y1460002D02*
D03*
X810002Y1360002D02*
D03*
Y960002D02*
D03*
X760002Y860002D02*
D03*
X660002Y2060002D02*
D03*
X710002Y1960002D02*
D03*
X660002Y1660002D02*
D03*
Y1460002D02*
D03*
X710002Y960002D02*
D03*
X660002Y860002D02*
D03*
X560002Y2060002D02*
D03*
X610002Y1960002D02*
D03*
Y1360002D02*
D03*
Y960002D02*
D03*
X560002Y460002D02*
D03*
X510002Y2760003D02*
D03*
Y1960002D02*
D03*
X460002Y1460002D02*
D03*
X360002D02*
D03*
Y1060002D02*
D03*
Y60001D02*
D03*
X310001Y2760003D02*
D03*
Y2560003D02*
D03*
X260002Y2460003D02*
D03*
X310001Y2360003D02*
D03*
Y2160003D02*
D03*
X260002Y1460002D02*
D03*
Y1060002D02*
D03*
Y60001D02*
D03*
X160001Y2660003D02*
D03*
X210001Y2560003D02*
D03*
X160001Y2460003D02*
D03*
X210001Y2360003D02*
D03*
Y2160003D02*
D03*
X160001Y1660002D02*
D03*
X210001Y1560002D02*
D03*
X160001Y1460002D02*
D03*
Y1060002D02*
D03*
X210001Y760002D02*
D03*
X60001Y2660003D02*
D03*
X110001Y2360003D02*
D03*
X60001Y2060002D02*
D03*
Y1860002D02*
D03*
Y1660002D02*
D03*
X110001Y1560002D02*
D03*
X60001Y1460002D02*
D03*
Y260002D02*
D03*
X1270000Y1510000D02*
D03*
X460000Y2180000D02*
D03*
X1650000Y2130000D02*
D03*
X2030000D02*
D03*
X2050000Y2060000D02*
D03*
X1600000Y2080000D02*
D03*
X2201083Y2251083D02*
D03*
X2200000Y2310000D02*
D03*
X2384802Y1928760D02*
D03*
X2430000Y1890000D02*
D03*
X2480000Y1840000D02*
D03*
X2155920Y2135425D02*
D03*
X2830000Y2220000D02*
D03*
X2890000Y2180000D02*
D03*
X2900000Y2050000D02*
D03*
X3320000Y1320000D02*
D03*
X3070000Y1341200D02*
D03*
X3111486Y1454727D02*
D03*
X2270000Y290000D02*
D03*
X2200000Y1730000D02*
D03*
X2250000Y2000000D02*
D03*
X2100000Y1650000D02*
D03*
X3100000Y1640000D02*
D03*
X3350000Y1110000D02*
D03*
X3590000D02*
D03*
X2750000Y2930000D02*
D03*
X1520000Y1410000D02*
D03*
X990000Y2100000D02*
D03*
X1770000Y1440000D02*
D03*
X2070000Y1910000D02*
D03*
X2090000Y1830000D02*
D03*
X280000Y1860000D02*
D03*
X200000D02*
D03*
X2270000Y1170000D02*
D03*
X2460000D02*
D03*
X3390000Y2900000D02*
D03*
X2990000Y2850000D02*
D03*
X2510000Y2840000D02*
D03*
X2270000D02*
D03*
X1620000Y2360000D02*
D03*
X3340000Y2060000D02*
D03*
X1860000Y1670000D02*
D03*
X2960000Y2110000D02*
D03*
X2840000Y1980000D02*
D03*
X690000Y2140000D02*
D03*
X2110000Y2020000D02*
D03*
X1760000Y1890000D02*
D03*
X1420000Y1820000D02*
D03*
X1770000Y1990000D02*
D03*
X790000Y1750000D02*
D03*
Y1920000D02*
D03*
X390000Y1950000D02*
D03*
X410000Y1607500D02*
D03*
X1477500Y2090000D02*
D03*
X2280000Y1930000D02*
D03*
X3640000Y1430000D02*
D03*
X3890000Y1060000D02*
D03*
X2000000Y1390000D02*
D03*
X2720000Y1410000D02*
D03*
X2400000Y940000D02*
D03*
X2720000Y1290000D02*
D03*
X2080000Y1240000D02*
D03*
X3220000Y1640000D02*
D03*
X1930000Y2420000D02*
D03*
X65433Y2186175D02*
D03*
X2585636Y1899758D02*
D03*
X1740000Y1790000D02*
D03*
X810000Y2430000D02*
D03*
X1370000Y2400000D02*
D03*
X806178Y2525491D02*
D03*
X1189575Y2405000D02*
D03*
X1190000Y2520000D02*
D03*
X1370000Y2530000D02*
D03*
X2040000Y1670000D02*
D03*
X1840000Y2030000D02*
D03*
X1940000Y1590000D02*
D03*
X2130000Y1719900D02*
D03*
D72*
X2510000Y2367500D02*
D03*
X2657500Y2220000D02*
D03*
X2362500D02*
D03*
X2510000Y2072500D02*
D03*
Y2220000D02*
D03*
X747500Y630000D02*
D03*
X852500D02*
D03*
D78*
X310000Y200000D02*
D03*
X3830000Y860000D02*
D03*
X980000Y2350000D02*
D03*
D79*
X1220000Y650000D02*
D03*
Y520000D02*
D03*
X1039574Y650000D02*
D03*
Y520000D02*
D03*
X268298Y1300000D02*
D03*
Y1170000D02*
D03*
X2380000Y1495000D02*
D03*
Y1625000D02*
D03*
X2199575Y1625000D02*
D03*
Y1495000D02*
D03*
X1370000Y2530074D02*
D03*
Y2400074D02*
D03*
X1189575Y2530074D02*
D03*
Y2400074D02*
D03*
D80*
X2750000Y2395000D02*
D03*
Y2345000D02*
D03*
Y2295000D02*
D03*
Y2245000D02*
D03*
Y2195000D02*
D03*
Y2145000D02*
D03*
Y2095000D02*
D03*
Y2045000D02*
D03*
X2270000D02*
D03*
Y2095000D02*
D03*
Y2145000D02*
D03*
Y2195000D02*
D03*
Y2245000D02*
D03*
Y2295000D02*
D03*
Y2345000D02*
D03*
Y2395000D02*
D03*
D81*
X2685000Y1980000D02*
D03*
X2635000D02*
D03*
X2585000D02*
D03*
X2535000D02*
D03*
X2485000D02*
D03*
X2435000D02*
D03*
X2385000D02*
D03*
X2335000D02*
D03*
Y2460000D02*
D03*
X2385000D02*
D03*
X2435000D02*
D03*
X2485000D02*
D03*
X2535000D02*
D03*
X2585000D02*
D03*
X2635000D02*
D03*
X2685000D02*
D03*
D82*
X2510000Y2220000D02*
D03*
D83*
X1341200Y1510000D02*
D03*
Y1710000D02*
D03*
Y1660000D02*
D03*
Y1560000D02*
D03*
Y1610000D02*
D03*
X1598750Y1510000D02*
D03*
Y1710000D02*
D03*
Y1660000D02*
D03*
Y1560000D02*
D03*
Y1610000D02*
D03*
D84*
X1420000Y1737500D02*
D03*
X1470000D02*
D03*
X1520000D02*
D03*
X1420000Y1482500D02*
D03*
X1470000D02*
D03*
X1520000D02*
D03*
D85*
X2000000Y1770000D02*
D03*
X1840000Y1970000D02*
D03*
X1880000D02*
D03*
X1920000D02*
D03*
X1960000D02*
D03*
X2000000D02*
D03*
X1840000Y1930000D02*
D03*
X1880000D02*
D03*
X1920000D02*
D03*
X1960000D02*
D03*
X2000000D02*
D03*
X1840000Y1890000D02*
D03*
Y1850000D02*
D03*
Y1810000D02*
D03*
Y1770000D02*
D03*
X1880000Y1890000D02*
D03*
Y1850000D02*
D03*
Y1810000D02*
D03*
Y1770000D02*
D03*
X1920000Y1890000D02*
D03*
Y1850000D02*
D03*
Y1810000D02*
D03*
Y1770000D02*
D03*
X1960000Y1890000D02*
D03*
Y1850000D02*
D03*
Y1810000D02*
D03*
Y1770000D02*
D03*
X2000000Y1890000D02*
D03*
Y1850000D02*
D03*
Y1810000D02*
D03*
D86*
X3100000Y2060000D02*
D03*
Y1660000D02*
D03*
X3340000D02*
D03*
Y2060000D02*
D03*
D87*
X1860000Y2310000D02*
D03*
Y2560000D02*
D03*
D88*
X806178Y2425491D02*
D03*
X666178D02*
D03*
X806178Y2525491D02*
D03*
X666178D02*
D03*
D89*
X2145000Y940000D02*
D03*
X2395000D02*
D03*
D90*
X800000Y630000D02*
D03*
D91*
X865000Y727500D02*
D03*
X800000D02*
D03*
X735000D02*
D03*
X865000Y532500D02*
D03*
X800000D02*
D03*
X735000D02*
D03*
D92*
X1120000Y2168025D02*
D03*
Y1928025D02*
D03*
X880000Y2088025D02*
D03*
Y2168025D02*
D03*
Y2008025D02*
D03*
X1120000D02*
D03*
X880000Y1928025D02*
D03*
X1120000Y2088025D02*
D03*
D93*
X65433Y2186175D02*
D03*
X565433D02*
D03*
X65433Y2536175D02*
D03*
D94*
X3070000Y1337500D02*
D03*
Y1142500D02*
D03*
X460000Y815000D02*
D03*
Y620000D02*
D03*
D95*
X780000Y125000D02*
D03*
Y320000D02*
D03*
D96*
X87873Y1170000D02*
D03*
Y1300000D02*
D03*
D97*
X790425Y1752500D02*
D03*
Y1607500D02*
D03*
X550000Y1752500D02*
D03*
Y1607500D02*
D03*
X1050000D02*
D03*
Y1752500D02*
D03*
X2561702Y537500D02*
D03*
Y682500D02*
D03*
X1650000Y757500D02*
D03*
Y902500D02*
D03*
X2509998Y2840316D02*
D03*
Y2695316D02*
D03*
X2269573Y2697500D02*
D03*
Y2842500D02*
D03*
X2750424Y2840316D02*
D03*
Y2695316D02*
D03*
X1620000Y2357500D02*
D03*
Y2502500D02*
D03*
X3350000Y1322500D02*
D03*
Y1177500D02*
D03*
X3830851Y1322500D02*
D03*
Y1177500D02*
D03*
X3590425Y1322500D02*
D03*
Y1177500D02*
D03*
X1530000Y1127925D02*
D03*
Y1272925D02*
D03*
X959574Y1125000D02*
D03*
Y1270000D02*
D03*
X1200000D02*
D03*
Y1125000D02*
D03*
X719149D02*
D03*
Y1270000D02*
D03*
X478723Y1125425D02*
D03*
Y1270425D02*
D03*
X1548724Y150000D02*
D03*
Y295000D02*
D03*
X2990849Y2709049D02*
D03*
Y2854049D02*
D03*
X3231275Y2854049D02*
D03*
Y2709049D02*
D03*
X150000Y585000D02*
D03*
Y440000D02*
D03*
X2080851Y682500D02*
D03*
Y537500D02*
D03*
X2802127Y682500D02*
D03*
Y537500D02*
D03*
X2321276Y682500D02*
D03*
Y537500D02*
D03*
X1308298Y300000D02*
D03*
Y155000D02*
D03*
X1067873Y300000D02*
D03*
Y155000D02*
D03*
X2270000Y290000D02*
D03*
Y145000D02*
D03*
X1789149Y295000D02*
D03*
Y150000D02*
D03*
X2029575Y292500D02*
D03*
Y147500D02*
D03*
X1480000Y2092500D02*
D03*
Y1947500D02*
D03*
D98*
X140000Y990000D02*
D03*
X180000D02*
D03*
X140000Y950000D02*
D03*
X180000D02*
D03*
X140000Y910000D02*
D03*
X180000D02*
D03*
X140000Y870000D02*
D03*
X180000D02*
D03*
D99*
X500000Y105000D02*
D03*
Y250000D02*
D03*
%TF.MD5,63c457251f1de306d15dedb79b3b61ac*%
M02*
