%TF.GenerationSoftware,Altium Limited,Altium Designer,21.9.2 (33)*%
G04 Layer_Color=8388736*
%FSLAX45Y45*%
%MOMM*%
%TF.SameCoordinates,43275E26-CB7C-43E4-9740-FE9D7F4F9AB3*%
%TF.FilePolarity,Positive*%
%TF.FileFunction,Other,Top_3D_Body*%
%TF.Part,Single*%
G01*
G75*
%TA.AperFunction,NonConductor*%
%ADD60C,0.20000*%
D60*
X1750000Y1379725D02*
X2070000D01*
Y1109725D02*
Y1379725D01*
X1750000Y1109725D02*
X2070000D01*
X1750000D02*
Y1379725D01*
X3275000Y2370000D02*
Y2470000D01*
X3325000D01*
Y2370000D02*
Y2470000D01*
X3275000Y2370000D02*
X3325000D01*
X3142327D02*
Y2470000D01*
X3092327Y2370000D02*
X3142327D01*
X3092327D02*
Y2470000D01*
X3142327D01*
X2317075Y1152500D02*
Y1327500D01*
X2222075Y1152500D02*
X2317075D01*
X2222075D02*
Y1327500D01*
X2317075D01*
X2507500Y1152500D02*
Y1327500D01*
X2412500Y1152500D02*
X2507500D01*
X2412500D02*
Y1327500D01*
X2507500D01*
X1817925Y522500D02*
X1912925D01*
Y697500D01*
X1817925D02*
X1912925D01*
X1817925Y522500D02*
Y697500D01*
%TF.MD5,b87d8ba7ebfff2441bc4cd4c6f5b0e79*%
M02*
