%TF.GenerationSoftware,Altium Limited,Altium Designer,21.9.1 (22)*%
G04 Layer_Color=16711935*
%FSLAX45Y45*%
%MOMM*%
%TF.SameCoordinates,430BEF64-33ED-46D9-BD69-C1E45A4CD6A6*%
%TF.FilePolarity,Negative*%
%TF.FileFunction,Soldermask,Bot*%
%TF.Part,Single*%
G01*
G75*
%TA.AperFunction,ViaPad*%
%ADD55C,0.30000*%
%TA.AperFunction,ConnectorPad*%
%ADD63R,1.20320X1.10320*%
%TA.AperFunction,SMDPad,CuDef*%
%ADD64P,4.53001X4X90.0*%
%ADD65C,0.60320*%
%TA.AperFunction,ViaPad*%
%ADD66C,1.00320*%
%ADD67C,1.72720*%
%TA.AperFunction,ComponentPad*%
%ADD68C,1.70320*%
%ADD69R,1.70320X1.70320*%
%TA.AperFunction,ViaPad*%
%ADD70C,0.60320*%
%ADD71C,0.40320*%
D55*
X3469849Y2900000D02*
D03*
D63*
X3887600Y1804500D02*
D03*
Y1684500D02*
D03*
Y1564500D02*
D03*
Y1444500D02*
D03*
Y1324500D02*
D03*
Y1204500D02*
D03*
X3640000D02*
D03*
Y1324500D02*
D03*
Y1444500D02*
D03*
Y1684500D02*
D03*
Y1804500D02*
D03*
Y1564500D02*
D03*
D64*
X2685394Y2685394D02*
D03*
X314606Y314606D02*
D03*
D65*
X1920000Y2080000D02*
D03*
X1740000Y2130000D02*
D03*
D66*
X280000Y2650000D02*
D03*
X3410000Y2240000D02*
D03*
X350000Y390000D02*
D03*
X3070000Y640000D02*
D03*
D67*
X3170000Y480000D02*
D03*
X110000Y110000D02*
D03*
D68*
X156000Y2840000D02*
D03*
X410000D02*
D03*
X664000D02*
D03*
X918000D02*
D03*
X1172000D02*
D03*
X1426000D02*
D03*
X1680000D02*
D03*
D69*
X1934000D02*
D03*
D70*
X3910003Y560002D02*
D03*
X3860003Y460002D02*
D03*
X3910003Y360002D02*
D03*
X3860003Y260002D02*
D03*
X3910003Y160001D02*
D03*
X3860003Y60001D02*
D03*
X3810003Y560002D02*
D03*
X3760003Y460002D02*
D03*
X3810003Y360002D02*
D03*
X3760003Y260002D02*
D03*
X3810003Y160001D02*
D03*
X3760003Y60001D02*
D03*
X3660003Y660002D02*
D03*
X3710003Y360002D02*
D03*
X3660003Y260002D02*
D03*
X3710003Y160001D02*
D03*
X3660003Y60001D02*
D03*
X3560003Y660002D02*
D03*
X3610003Y360002D02*
D03*
X3560003Y260002D02*
D03*
X3610003Y160001D02*
D03*
X3560003Y60001D02*
D03*
X3510003Y960002D02*
D03*
X3460003Y660002D02*
D03*
X3510003Y560002D02*
D03*
X3460003Y460002D02*
D03*
X3510003Y160001D02*
D03*
X3460003Y60001D02*
D03*
X3410003Y960002D02*
D03*
X3360003Y660002D02*
D03*
X3410003Y560002D02*
D03*
X3360003Y460002D02*
D03*
X3410003Y160001D02*
D03*
X3360003Y60001D02*
D03*
X3310003Y960002D02*
D03*
X3260003Y660002D02*
D03*
X3310003Y560002D02*
D03*
Y360002D02*
D03*
Y160001D02*
D03*
X3260003Y60001D02*
D03*
X3210003Y960002D02*
D03*
X3160003Y660002D02*
D03*
X3210003Y360002D02*
D03*
Y160001D02*
D03*
X3160003Y60001D02*
D03*
X3110003Y360002D02*
D03*
Y160001D02*
D03*
X3060003Y60001D02*
D03*
X3010003Y360002D02*
D03*
Y160001D02*
D03*
X2960003Y60001D02*
D03*
X2910003Y960002D02*
D03*
Y160001D02*
D03*
X2860003Y60001D02*
D03*
X2810003Y960002D02*
D03*
Y360002D02*
D03*
Y160001D02*
D03*
X2760003Y60001D02*
D03*
X2710003Y960002D02*
D03*
X2660003Y460002D02*
D03*
X2710003Y360002D02*
D03*
Y160001D02*
D03*
X2660003Y60001D02*
D03*
X2610003Y360002D02*
D03*
Y160001D02*
D03*
X2560003Y60001D02*
D03*
X2460003Y460002D02*
D03*
X2510003Y360002D02*
D03*
Y160001D02*
D03*
X2460003Y60001D02*
D03*
X2410003Y360002D02*
D03*
Y160001D02*
D03*
X2160003Y60001D02*
D03*
X2060002Y2860003D02*
D03*
X1960002Y460002D02*
D03*
X1860002D02*
D03*
X1910002Y360002D02*
D03*
Y160001D02*
D03*
X1760002Y460002D02*
D03*
X1660002D02*
D03*
Y60001D02*
D03*
X1560002Y2860003D02*
D03*
Y460002D02*
D03*
X1510002Y960002D02*
D03*
X1460002Y460002D02*
D03*
Y60001D02*
D03*
X1410002Y1360002D02*
D03*
Y360002D02*
D03*
Y160001D02*
D03*
X1360002Y60001D02*
D03*
X1260002Y2660003D02*
D03*
Y1860002D02*
D03*
X1310002Y960002D02*
D03*
X1260002Y60001D02*
D03*
X1160002Y2660003D02*
D03*
Y1860002D02*
D03*
X1210002Y1760002D02*
D03*
Y960002D02*
D03*
Y360002D02*
D03*
Y160001D02*
D03*
X1160002Y60001D02*
D03*
X1060002Y2660003D02*
D03*
Y1460002D02*
D03*
X1110002Y1360002D02*
D03*
X1060002Y1060002D02*
D03*
X1110002Y960002D02*
D03*
X1060002Y60001D02*
D03*
X1010002Y2760003D02*
D03*
X960002Y2660003D02*
D03*
X1010002Y2560003D02*
D03*
X960002Y1460002D02*
D03*
X1010002Y960002D02*
D03*
X960002Y60001D02*
D03*
X910002Y1760002D02*
D03*
Y1560002D02*
D03*
X860002Y1460002D02*
D03*
Y1060002D02*
D03*
X910002Y960002D02*
D03*
X810002Y2760003D02*
D03*
X760002Y1460002D02*
D03*
X810002Y1360002D02*
D03*
Y960002D02*
D03*
X760002Y860002D02*
D03*
X660002Y2060002D02*
D03*
X710002Y1960002D02*
D03*
X660002Y1660002D02*
D03*
Y1460002D02*
D03*
X710002Y960002D02*
D03*
X660002Y860002D02*
D03*
X560002Y2060002D02*
D03*
X610002Y1960002D02*
D03*
Y1360002D02*
D03*
Y960002D02*
D03*
X560002Y460002D02*
D03*
X510002Y2760003D02*
D03*
Y1960002D02*
D03*
X460002Y1460002D02*
D03*
X360002D02*
D03*
Y1060002D02*
D03*
Y60001D02*
D03*
X310001Y2760003D02*
D03*
Y2560003D02*
D03*
X260002Y2460003D02*
D03*
X310001Y2360003D02*
D03*
Y2160003D02*
D03*
X260002Y1460002D02*
D03*
Y1060002D02*
D03*
Y60001D02*
D03*
X160001Y2660003D02*
D03*
X210001Y2560003D02*
D03*
X160001Y2460003D02*
D03*
X210001Y2360003D02*
D03*
Y2160003D02*
D03*
X160001Y1660002D02*
D03*
X210001Y1560002D02*
D03*
X160001Y1460002D02*
D03*
Y1060002D02*
D03*
X210001Y760002D02*
D03*
X60001Y2660003D02*
D03*
X110001Y2360003D02*
D03*
X60001Y2060002D02*
D03*
Y1860002D02*
D03*
Y1660002D02*
D03*
X110001Y1560002D02*
D03*
X60001Y1460002D02*
D03*
Y260002D02*
D03*
X1270000Y1510000D02*
D03*
X460000Y2180000D02*
D03*
X1650000Y2130000D02*
D03*
X2030000D02*
D03*
X2050000Y2060000D02*
D03*
X1600000Y2080000D02*
D03*
X2201083Y2251083D02*
D03*
X2200000Y2310000D02*
D03*
X2384802Y1928760D02*
D03*
X2430000Y1890000D02*
D03*
X2480000Y1840000D02*
D03*
X2155920Y2135425D02*
D03*
X2830000Y2220000D02*
D03*
X2890000Y2180000D02*
D03*
X2900000Y2050000D02*
D03*
X3320000Y1320000D02*
D03*
X3070000Y1341200D02*
D03*
X3111486Y1454727D02*
D03*
X2270000Y290000D02*
D03*
X2200000Y1730000D02*
D03*
X2250000Y2000000D02*
D03*
X2100000Y1650000D02*
D03*
X3100000Y1640000D02*
D03*
X3350000Y1110000D02*
D03*
X3590000D02*
D03*
X2750000Y2930000D02*
D03*
X1520000Y1410000D02*
D03*
X990000Y2100000D02*
D03*
X1770000Y1440000D02*
D03*
X2070000Y1910000D02*
D03*
X2090000Y1830000D02*
D03*
X280000Y1860000D02*
D03*
X200000D02*
D03*
X2270000Y1170000D02*
D03*
X2460000D02*
D03*
X3390000Y2900000D02*
D03*
X2990000Y2850000D02*
D03*
X2510000Y2840000D02*
D03*
X2270000D02*
D03*
X1620000Y2360000D02*
D03*
X3340000Y2060000D02*
D03*
X1860000Y1670000D02*
D03*
X2960000Y2110000D02*
D03*
X2840000Y1980000D02*
D03*
X690000Y2140000D02*
D03*
X2110000Y2020000D02*
D03*
X1760000Y1890000D02*
D03*
X1420000Y1820000D02*
D03*
X1770000Y1990000D02*
D03*
X790000Y1750000D02*
D03*
Y1920000D02*
D03*
X390000Y1950000D02*
D03*
X410000Y1607500D02*
D03*
X1477500Y2090000D02*
D03*
X2280000Y1930000D02*
D03*
X3640000Y1430000D02*
D03*
X3890000Y1060000D02*
D03*
X2000000Y1390000D02*
D03*
X2720000Y1410000D02*
D03*
X2400000Y940000D02*
D03*
X2720000Y1290000D02*
D03*
X2080000Y1240000D02*
D03*
X3220000Y1640000D02*
D03*
X1930000Y2420000D02*
D03*
X65433Y2186175D02*
D03*
X2585636Y1899758D02*
D03*
X1740000Y1790000D02*
D03*
X810000Y2430000D02*
D03*
X1370000Y2400000D02*
D03*
X806178Y2525491D02*
D03*
X1189575Y2405000D02*
D03*
X1190000Y2520000D02*
D03*
X1370000Y2530000D02*
D03*
X2040000Y1670000D02*
D03*
X1840000Y2030000D02*
D03*
X1940000Y1590000D02*
D03*
X2130000Y1719900D02*
D03*
D71*
X2510000Y2367500D02*
D03*
X2657500Y2220000D02*
D03*
X2362500D02*
D03*
X2510000Y2072500D02*
D03*
Y2220000D02*
D03*
X747500Y630000D02*
D03*
X852500D02*
D03*
%TF.MD5,4d2bf616064b797846a5b16c38577f8d*%
M02*
