%TF.GenerationSoftware,Altium Limited,Altium Designer,21.9.1 (22)*%
G04 Layer_Color=32768*
%FSLAX45Y45*%
%MOMM*%
%TF.SameCoordinates,430BEF64-33ED-46D9-BD69-C1E45A4CD6A6*%
%TF.FilePolarity,Positive*%
%TF.FileFunction,Other,Top_Courtyard*%
%TF.Part,Single*%
G01*
G75*
%TA.AperFunction,NonConductor*%
%ADD59C,0.20000*%
D59*
X1690000Y1389725D02*
X2130000D01*
Y1099725D02*
Y1389725D01*
X1690000Y1099725D02*
X2130000D01*
X1690000D02*
Y1389725D01*
X3256376Y2331376D02*
Y2508624D01*
X3343624D01*
Y2331376D02*
Y2508624D01*
X3256376Y2331376D02*
X3343624D01*
X3160951D02*
Y2508624D01*
X3073704Y2331376D02*
X3160951D01*
X3073704D02*
Y2508624D01*
X3160951D01*
X2327075Y1130000D02*
Y1350000D01*
X2212075Y1130000D02*
X2327075D01*
X2212075D02*
Y1350000D01*
X2327075D01*
X2517500Y1130000D02*
Y1350000D01*
X2402500Y1130000D02*
X2517500D01*
X2402500D02*
Y1350000D01*
X2517500D01*
X1807925Y500000D02*
X1922925D01*
Y720000D01*
X1807925D02*
X1922925D01*
X1807925Y500000D02*
Y720000D01*
%TF.MD5,9e2c1a4d25f35f6adf2547406d1d707a*%
M02*
