%TF.GenerationSoftware,Altium Limited,Altium Designer,21.9.2 (33)*%
G04 Layer_Color=255*
%FSLAX45Y45*%
%MOMM*%
%TF.SameCoordinates,43275E26-CB7C-43E4-9740-FE9D7F4F9AB3*%
%TF.FilePolarity,Positive*%
%TF.FileFunction,Pads,Bot*%
%TF.Part,Single*%
G01*
G75*
%TA.AperFunction,SMDPad,CuDef*%
%ADD11C,0.40000*%
%TA.AperFunction,ViaPad*%
%ADD50C,0.80000*%
%ADD51C,1.52400*%
%TA.AperFunction,ComponentPad*%
%ADD52C,1.50000*%
%ADD53R,1.50000X1.50000*%
%TA.AperFunction,ConnectorPad*%
%ADD57R,1.00000X0.90000*%
%TA.AperFunction,SMDPad,CuDef*%
%ADD58P,4.24264X4X90.0*%
D11*
X1920000Y2080000D02*
D03*
X1740000Y2130000D02*
D03*
D50*
X280000Y2650000D02*
D03*
X3410000Y2240000D02*
D03*
D51*
X3170000Y480000D02*
D03*
X110000Y110000D02*
D03*
D52*
X156000Y2840000D02*
D03*
X410000D02*
D03*
X664000D02*
D03*
X918000D02*
D03*
X1172000D02*
D03*
X1426000D02*
D03*
X1680000D02*
D03*
D53*
X1934000D02*
D03*
D57*
X3887600Y1804500D02*
D03*
Y1684500D02*
D03*
Y1564500D02*
D03*
Y1444500D02*
D03*
Y1324500D02*
D03*
Y1204500D02*
D03*
X3640000D02*
D03*
Y1324500D02*
D03*
Y1444500D02*
D03*
Y1684500D02*
D03*
Y1804500D02*
D03*
Y1564500D02*
D03*
D58*
X2685394Y2685394D02*
D03*
X314606Y314606D02*
D03*
%TF.MD5,f75c67d12a7c84db909ffd63ffd11d1f*%
M02*
