%TF.GenerationSoftware,Altium Limited,Altium Designer,21.9.1 (22)*%
G04 Layer_Physical_Order=4*
G04 Layer_Color=16711680*
%FSLAX45Y45*%
%MOMM*%
%TF.SameCoordinates,430BEF64-33ED-46D9-BD69-C1E45A4CD6A6*%
%TF.FilePolarity,Positive*%
%TF.FileFunction,Copper,L4,Bot,Signal*%
%TF.Part,Single*%
G01*
G75*
%TA.AperFunction,SMDPad,CuDef*%
%ADD10C,0.40000*%
%TA.AperFunction,Conductor*%
%ADD38C,0.25400*%
%ADD39C,0.09000*%
%ADD40C,0.50000*%
%TA.AperFunction,ViaPad*%
%ADD49C,0.80000*%
%ADD50C,1.52400*%
%TA.AperFunction,ComponentPad*%
%ADD51C,1.50000*%
%ADD52R,1.50000X1.50000*%
%TA.AperFunction,ViaPad*%
%ADD53C,0.40000*%
%ADD54C,0.20000*%
%ADD55C,0.30000*%
%TA.AperFunction,ConnectorPad*%
%ADD56R,1.00000X0.90000*%
%TA.AperFunction,SMDPad,CuDef*%
%ADD57P,4.24264X4X90.0*%
%TA.AperFunction,Conductor*%
%ADD58C,1.00000*%
G36*
X3468951Y2940400D02*
X3461813D01*
X3446964Y2934249D01*
X3441121Y2928406D01*
X3430186Y2926079D01*
X3425164Y2929042D01*
X3415717Y2938488D01*
X3399031Y2945400D01*
X3380969D01*
X3364283Y2938488D01*
X3351512Y2925717D01*
X3344600Y2909031D01*
Y2890969D01*
X3351512Y2874283D01*
X3364283Y2861512D01*
X3380969Y2854600D01*
X3399031D01*
X3415717Y2861512D01*
X3425164Y2870958D01*
X3430186Y2873921D01*
X3441121Y2871594D01*
X3446964Y2865751D01*
X3461813Y2859600D01*
X3468951D01*
Y2291499D01*
X3456251Y2286238D01*
X3450157Y2292333D01*
X3435244Y2300943D01*
X3418610Y2305400D01*
X3401390D01*
X3384757Y2300943D01*
X3369843Y2292333D01*
X3357667Y2280157D01*
X3349057Y2265244D01*
X3344600Y2248610D01*
Y2231390D01*
X3349057Y2214757D01*
X3357667Y2199843D01*
X3369843Y2187667D01*
X3384757Y2179057D01*
X3401390Y2174600D01*
X3418610D01*
X3435244Y2179057D01*
X3450157Y2187667D01*
X3456251Y2193762D01*
X3468951Y2188501D01*
Y1823888D01*
X3393909Y1748846D01*
X2556091D01*
X2513077Y1791860D01*
X2513552Y1809346D01*
X2518488Y1814283D01*
X2520291Y1818635D01*
X2535272Y1821615D01*
X2548444Y1808443D01*
X2558334Y1801835D01*
X2570000Y1799514D01*
X2630000D01*
X2641666Y1801835D01*
X2651556Y1808443D01*
X2671557Y1828444D01*
X2678165Y1838334D01*
X2680486Y1850000D01*
Y1920000D01*
X2678709Y1928933D01*
X2678733Y1929166D01*
X2678999Y1930426D01*
X2683390Y1937214D01*
X2687100Y1941154D01*
X2813795D01*
X2815571Y1940978D01*
X2830969Y1934600D01*
X2849031D01*
X2865717Y1941512D01*
X2878488Y1954283D01*
X2885400Y1970969D01*
Y1989031D01*
X2883335Y1994016D01*
X2887296Y1999507D01*
X2892698Y2004600D01*
X2909031D01*
X2925717Y2011512D01*
X2938488Y2024283D01*
X2945400Y2040969D01*
Y2053160D01*
X2949146Y2060854D01*
X2956840Y2064600D01*
X2969031D01*
X2985717Y2071512D01*
X2998488Y2084283D01*
X3005400Y2100969D01*
Y2119031D01*
X2998488Y2135717D01*
X2985717Y2148488D01*
X2969031Y2155400D01*
X2950969D01*
X2940984Y2151264D01*
X2931264Y2160985D01*
X2935400Y2170969D01*
Y2189031D01*
X2928488Y2205717D01*
X2925768Y2208438D01*
X2920486Y2218003D01*
Y2250000D01*
X2918165Y2261667D01*
X2911557Y2271557D01*
X2724564Y2458550D01*
X2723481Y2475428D01*
X2800440Y2552387D01*
X2676413Y2676414D01*
X2685394Y2685394D01*
X2676413Y2694374D01*
X2800440Y2818401D01*
X2746941Y2871900D01*
X2752202Y2884600D01*
X2759031D01*
X2775717Y2891512D01*
X2788488Y2904283D01*
X2795400Y2920969D01*
Y2939031D01*
X2788488Y2955717D01*
X2782802Y2961404D01*
X2788062Y2974104D01*
X3468951D01*
Y2940400D01*
D02*
G37*
G36*
X2041678Y2912322D02*
X2008390Y2843984D01*
X1937984Y2914390D01*
X2006322Y2947678D01*
X2041678Y2912322D01*
D02*
G37*
G36*
X1513939Y2758425D02*
X1507575Y2752061D01*
X1426750Y2765004D01*
X1500996Y2839250D01*
X1513939Y2758425D01*
D02*
G37*
G36*
X1259939D02*
X1253575Y2752061D01*
X1172750Y2765004D01*
X1246996Y2839250D01*
X1259939Y2758425D01*
D02*
G37*
G36*
X1975363Y2961404D02*
X1932243Y2940400D01*
X1833600D01*
Y2852700D01*
X1933999D01*
Y2827300D01*
X1833600D01*
Y2750485D01*
X1750159D01*
X1745173Y2763185D01*
X1760340Y2778353D01*
X1773558Y2801247D01*
X1780400Y2826782D01*
Y2853218D01*
X1773558Y2878753D01*
X1760340Y2901647D01*
X1741647Y2920340D01*
X1718753Y2933558D01*
X1693218Y2940400D01*
X1666782D01*
X1641247Y2933558D01*
X1618353Y2920340D01*
X1599660Y2901647D01*
X1586442Y2878753D01*
X1579600Y2853218D01*
Y2826782D01*
X1586442Y2801247D01*
X1599660Y2778353D01*
X1614827Y2763185D01*
X1609841Y2750485D01*
X1558628D01*
X1538160Y2770953D01*
X1526568Y2843345D01*
X1526400Y2843798D01*
Y2853218D01*
X1519558Y2878753D01*
X1506340Y2901647D01*
X1487647Y2920340D01*
X1464753Y2933558D01*
X1439218Y2940400D01*
X1412782D01*
X1387247Y2933558D01*
X1364353Y2920340D01*
X1345660Y2901647D01*
X1332442Y2878753D01*
X1325600Y2853218D01*
Y2826782D01*
X1332442Y2801247D01*
X1345660Y2778353D01*
X1364353Y2759660D01*
X1387247Y2746442D01*
X1412782Y2739600D01*
X1422202D01*
X1422655Y2739432D01*
X1461662Y2733186D01*
X1460652Y2720486D01*
X1334628D01*
X1284160Y2770953D01*
X1272568Y2843345D01*
X1272400Y2843798D01*
Y2853218D01*
X1265558Y2878753D01*
X1252340Y2901647D01*
X1233647Y2920340D01*
X1210753Y2933558D01*
X1185218Y2940400D01*
X1158782D01*
X1133247Y2933558D01*
X1110353Y2920340D01*
X1091660Y2901647D01*
X1078442Y2878753D01*
X1071600Y2853218D01*
Y2826782D01*
X1078442Y2801247D01*
X1091660Y2778353D01*
X1110353Y2759660D01*
X1133247Y2746442D01*
X1158782Y2739600D01*
X1168202D01*
X1168655Y2739432D01*
X1241047Y2727839D01*
X1300443Y2668443D01*
X1310334Y2661835D01*
X1322000Y2659514D01*
X1427984D01*
X1432844Y2647781D01*
X1361061Y2575998D01*
X1359682Y2574867D01*
X1344283Y2568488D01*
X1331512Y2555717D01*
X1324600Y2539031D01*
Y2520969D01*
X1328503Y2511547D01*
X1320355Y2498846D01*
X1266091D01*
X1235998Y2528940D01*
X1234866Y2530319D01*
X1228488Y2545717D01*
X1215717Y2558488D01*
X1199031Y2565400D01*
X1180969D01*
X1164283Y2558488D01*
X1151512Y2545717D01*
X1144600Y2529031D01*
Y2510969D01*
X1151512Y2494283D01*
X1164283Y2481512D01*
X1179681Y2475133D01*
X1181060Y2474002D01*
X1191963Y2463100D01*
X1186702Y2450400D01*
X1180544D01*
X1165146Y2444022D01*
X1163370Y2443846D01*
X1041091D01*
X927469Y2557469D01*
X914866Y2565889D01*
X900000Y2568847D01*
X865438D01*
X856815Y2567131D01*
X824287D01*
X815209Y2570891D01*
X797148D01*
X780461Y2563980D01*
X767690Y2551208D01*
X760779Y2534522D01*
Y2516461D01*
X767690Y2499774D01*
X780461Y2487003D01*
X788128Y2483827D01*
Y2470081D01*
X784283Y2468488D01*
X771512Y2455717D01*
X764600Y2439031D01*
Y2420969D01*
X771512Y2404283D01*
X784283Y2391512D01*
X800969Y2384600D01*
X819031D01*
X834429Y2390978D01*
X836205Y2391153D01*
X873909D01*
X922844Y2342219D01*
X917984Y2330486D01*
X672628D01*
X440486Y2562627D01*
Y2711866D01*
X483478Y2771253D01*
X483679Y2771692D01*
X490340Y2778353D01*
X503558Y2801247D01*
X510400Y2826782D01*
Y2853218D01*
X503558Y2878753D01*
X490340Y2901647D01*
X471647Y2920340D01*
X448753Y2933558D01*
X423218Y2940400D01*
X396782D01*
X371247Y2933558D01*
X348353Y2920340D01*
X329660Y2901647D01*
X316442Y2878753D01*
X309600Y2853218D01*
Y2826782D01*
X316442Y2801247D01*
X329660Y2778353D01*
X336321Y2771692D01*
X336522Y2771253D01*
X379514Y2711866D01*
Y2550000D01*
X381835Y2538334D01*
X388443Y2528444D01*
X616307Y2300580D01*
X611447Y2288847D01*
X129259D01*
X114393Y2285890D01*
X101790Y2277469D01*
X56494Y2232172D01*
X55115Y2231041D01*
X39716Y2224663D01*
X38596Y2223543D01*
X25896Y2228804D01*
Y2974104D01*
X1972434D01*
X1975363Y2961404D01*
D02*
G37*
G36*
X414500Y2720135D02*
X405500D01*
X357500Y2786439D01*
X462500D01*
X414500Y2720135D01*
D02*
G37*
G36*
X2471708Y2865913D02*
X2471512Y2865717D01*
X2464600Y2849031D01*
Y2830969D01*
X2471512Y2814283D01*
X2484283Y2801512D01*
X2500969Y2794600D01*
X2519031D01*
X2535717Y2801512D01*
X2544323Y2792376D01*
X2437341Y2685394D01*
X2425542Y2687571D01*
X2311556Y2801556D01*
X2309614Y2802854D01*
X2308488Y2814283D01*
X2315400Y2830969D01*
Y2849031D01*
X2308488Y2865717D01*
X2308293Y2865913D01*
X2313553Y2878613D01*
X2466447D01*
X2471708Y2865913D01*
D02*
G37*
G36*
X1398390Y2540430D02*
X1389999Y2530200D01*
X1370200Y2549999D01*
X1380430Y2558390D01*
X1398390Y2540430D01*
D02*
G37*
G36*
X830826Y2540985D02*
X835553Y2515585D01*
X822277Y2513623D01*
X818366Y2541349D01*
X830826Y2540985D01*
D02*
G37*
G36*
X1218390Y2509570D02*
X1200430Y2491610D01*
X1190200Y2500001D01*
X1209999Y2519800D01*
X1218390Y2509570D01*
D02*
G37*
G36*
X837450Y2442700D02*
Y2417300D01*
X824283Y2416000D01*
Y2444000D01*
X837450Y2442700D01*
D02*
G37*
G36*
X1961487Y2424500D02*
Y2415500D01*
X1944283Y2406000D01*
Y2434000D01*
X1961487Y2424500D01*
D02*
G37*
G36*
X1175292Y2391000D02*
X1162124Y2392300D01*
Y2417700D01*
X1175292Y2419000D01*
Y2391000D01*
D02*
G37*
G36*
X2521684Y2414633D02*
X2518680Y2407042D01*
X2515457Y2402900D01*
X2502959D01*
X2489948Y2397511D01*
X2479990Y2387553D01*
X2469476Y2385461D01*
X2174438Y2680500D01*
X2161835Y2688920D01*
X2146969Y2691878D01*
X2131584D01*
X2126724Y2703611D01*
X2142627Y2719515D01*
X2216803D01*
X2521684Y2414633D01*
D02*
G37*
G36*
X1369800Y2380001D02*
X1359570Y2371610D01*
X1341610Y2389570D01*
X1350001Y2399800D01*
X1369800Y2380001D01*
D02*
G37*
G36*
X1901135Y2464723D02*
X1902609Y2456814D01*
X1891512Y2445717D01*
X1884600Y2429031D01*
Y2410969D01*
X1891512Y2394283D01*
X1904283Y2381512D01*
X1920969Y2374600D01*
X1939031D01*
X1955717Y2381512D01*
X1958438Y2384232D01*
X1968003Y2389514D01*
X1997373D01*
X2086307Y2300580D01*
X2081447Y2288847D01*
X1498553D01*
X1493693Y2300580D01*
X1561900Y2368787D01*
X1574600Y2363526D01*
Y2350969D01*
X1581512Y2334283D01*
X1594283Y2321512D01*
X1610969Y2314600D01*
X1629031D01*
X1645717Y2321512D01*
X1658488Y2334283D01*
X1665400Y2350969D01*
Y2369031D01*
X1658488Y2385717D01*
X1645717Y2398488D01*
X1629031Y2405400D01*
X1616474D01*
X1611213Y2418100D01*
X1662628Y2469514D01*
X1898716D01*
X1901135Y2464723D01*
D02*
G37*
G36*
X2184510Y2239887D02*
X2175312Y2250188D01*
Y2259188D01*
X2189557Y2267428D01*
X2184510Y2239887D01*
D02*
G37*
G36*
X2490794Y2254269D02*
X2489947Y2250010D01*
X2479990Y2240053D01*
X2475732Y2239206D01*
X2147469Y2567469D01*
X2134866Y2575889D01*
X2120000Y2578847D01*
X1540000D01*
X1525134Y2575889D01*
X1512531Y2567469D01*
X1443909Y2498846D01*
X1419645D01*
X1411497Y2511547D01*
X1414867Y2519682D01*
X1415998Y2521060D01*
X1509122Y2614185D01*
X2130879D01*
X2490794Y2254269D01*
D02*
G37*
G36*
X2904000Y2194283D02*
X2876000D01*
X2885500Y2211487D01*
X2894500D01*
X2904000Y2194283D01*
D02*
G37*
G36*
X93824Y2196605D02*
X85432Y2186375D01*
X65633Y2206174D01*
X75863Y2214565D01*
X93824Y2196605D01*
D02*
G37*
G36*
X418503Y2198453D02*
X414600Y2189031D01*
Y2170969D01*
X421512Y2154283D01*
X434283Y2141512D01*
X450969Y2134600D01*
X469031D01*
X485717Y2141512D01*
X498488Y2154283D01*
X505400Y2170969D01*
Y2180231D01*
X648065D01*
X653325Y2167531D01*
X651512Y2165717D01*
X644600Y2149031D01*
Y2130969D01*
X651512Y2114283D01*
X664283Y2101512D01*
X680969Y2094600D01*
X699031D01*
X715717Y2101512D01*
X728488Y2114283D01*
X735400Y2130969D01*
Y2134817D01*
X738429Y2145315D01*
X742627Y2149514D01*
X958715D01*
X961134Y2144724D01*
X962609Y2136814D01*
X951512Y2125717D01*
X944600Y2109031D01*
Y2090969D01*
X951512Y2074283D01*
X964283Y2061512D01*
X980969Y2054600D01*
X999031D01*
X1014429Y2060978D01*
X1016205Y2061154D01*
X1442141D01*
X1451783Y2051512D01*
X1468469Y2044600D01*
X1486531D01*
X1503217Y2051512D01*
X1515988Y2064283D01*
X1522900Y2080969D01*
Y2099031D01*
X1515988Y2115717D01*
X1503217Y2128488D01*
X1486531Y2135400D01*
X1486314D01*
X1484800Y2136814D01*
X1489810Y2149514D01*
X1597595D01*
X1604600Y2139031D01*
Y2125400D01*
X1590969D01*
X1574283Y2118488D01*
X1561512Y2105717D01*
X1554600Y2089031D01*
Y2070969D01*
X1561512Y2054283D01*
X1574248Y2041547D01*
X1574247Y2041338D01*
X1571672Y2028847D01*
X1420000D01*
X1405134Y2025890D01*
X1392532Y2017469D01*
X1312532Y1937469D01*
X1304111Y1924866D01*
X1301154Y1910000D01*
Y1680000D01*
X1304111Y1665134D01*
X1312532Y1652531D01*
X1501963Y1463099D01*
X1499486Y1450643D01*
X1494283Y1448488D01*
X1481512Y1435717D01*
X1476120Y1422700D01*
X1520000D01*
Y1410000D01*
X1532700D01*
Y1366120D01*
X1545717Y1371512D01*
X1558488Y1384283D01*
X1560643Y1389486D01*
X1573099Y1391963D01*
X1591154Y1373909D01*
Y920000D01*
X1594111Y905134D01*
X1602531Y892531D01*
X1782531Y712531D01*
X1795134Y704111D01*
X1810000Y701154D01*
X3020703D01*
X3025964Y688454D01*
X3017667Y680157D01*
X3009057Y665244D01*
X3004600Y648610D01*
Y647273D01*
X2998715Y641387D01*
X897918D01*
X886999Y639215D01*
X882510Y650053D01*
X872552Y660011D01*
X865200Y663056D01*
Y630000D01*
X839800D01*
Y663056D01*
X832447Y660011D01*
X822489Y650053D01*
X817100Y637041D01*
Y622959D01*
X815782Y620987D01*
X784217D01*
X782900Y622959D01*
Y637041D01*
X777511Y650053D01*
X767552Y660011D01*
X760200Y663056D01*
Y630000D01*
X734800D01*
Y663056D01*
X727447Y660011D01*
X717489Y650053D01*
X713000Y639215D01*
X702082Y641387D01*
X634623D01*
X627834Y654087D01*
X628336Y654839D01*
X630696Y666700D01*
Y768300D01*
X628336Y780162D01*
X621617Y790217D01*
X611562Y796936D01*
X599700Y799296D01*
X320300D01*
X308439Y796936D01*
X298383Y790217D01*
X291664Y780162D01*
X289304Y768300D01*
Y666700D01*
X291664Y654839D01*
X298383Y644783D01*
X308439Y638064D01*
X320300Y635705D01*
X535620D01*
X540332Y623005D01*
X397297Y479969D01*
X314606Y562659D01*
X66553Y314606D01*
X180535Y200624D01*
X172384Y191300D01*
X149216Y204676D01*
X123376Y211600D01*
X96624D01*
X70784Y204676D01*
X47616Y191300D01*
X38596Y182281D01*
X25896Y187541D01*
Y2143546D01*
X38596Y2148806D01*
X39716Y2147686D01*
X56402Y2140775D01*
X74464D01*
X91150Y2147686D01*
X103922Y2160458D01*
X110300Y2175856D01*
X111431Y2177235D01*
X145349Y2211154D01*
X410355D01*
X418503Y2198453D01*
D02*
G37*
G36*
X715447Y2159083D02*
X709999Y2140200D01*
X690200Y2159999D01*
X709083Y2165447D01*
X715447Y2159083D01*
D02*
G37*
G36*
X2155720Y2155424D02*
X2135921Y2135625D01*
X2130473Y2154508D01*
X2136837Y2160871D01*
X2155720Y2155424D01*
D02*
G37*
G36*
X2015717Y2116000D02*
X1998513Y2125500D01*
Y2134500D01*
X2015717Y2144000D01*
Y2116000D01*
D02*
G37*
G36*
X1681487Y2134500D02*
Y2125500D01*
X1664283Y2116000D01*
Y2144000D01*
X1681487Y2134500D01*
D02*
G37*
G36*
X2945717Y2096000D02*
X2928513Y2105500D01*
Y2114500D01*
X2945717Y2124000D01*
Y2096000D01*
D02*
G37*
G36*
X1017450Y2112700D02*
Y2087300D01*
X1004283Y2086000D01*
Y2114000D01*
X1017450Y2112700D01*
D02*
G37*
G36*
X1471269Y2109005D02*
X1458131Y2085017D01*
X1445683Y2087300D01*
X1448180Y2112700D01*
X1471269Y2109005D01*
D02*
G37*
G36*
X1631487Y2084500D02*
Y2075500D01*
X1614283Y2066000D01*
Y2094000D01*
X1631487Y2084500D01*
D02*
G37*
G36*
X2035717Y2046000D02*
X2018513Y2055500D01*
Y2064500D01*
X2035717Y2074000D01*
Y2046000D01*
D02*
G37*
G36*
X2885717Y2036000D02*
X2872550Y2037300D01*
Y2062700D01*
X2885717Y2064000D01*
Y2036000D01*
D02*
G37*
G36*
X2124000Y2034283D02*
X2096000D01*
X2105500Y2051487D01*
X2114500D01*
X2124000Y2034283D01*
D02*
G37*
G36*
X1865447Y2010917D02*
X1859083Y2004553D01*
X1840200Y2010001D01*
X1859999Y2029800D01*
X1865447Y2010917D01*
D02*
G37*
G36*
X1755717Y1976000D02*
X1742550Y1977300D01*
Y2002700D01*
X1755717Y2004000D01*
Y1976000D01*
D02*
G37*
G36*
X2249800Y1980001D02*
X2230917Y1974553D01*
X2224553Y1980917D01*
X2230001Y1999800D01*
X2249800Y1980001D01*
D02*
G37*
G36*
X2825717Y1966000D02*
X2812550Y1967300D01*
Y1992700D01*
X2825717Y1994000D01*
Y1966000D01*
D02*
G37*
G36*
X2305447Y1949083D02*
X2299999Y1930200D01*
X2280200Y1949999D01*
X2299083Y1955447D01*
X2305447Y1949083D01*
D02*
G37*
G36*
X2585436Y1919757D02*
X2565637Y1899958D01*
X2557245Y1910188D01*
X2575206Y1928148D01*
X2585436Y1919757D01*
D02*
G37*
G36*
X2101487Y1914500D02*
Y1905500D01*
X2084283Y1896000D01*
Y1924000D01*
X2101487Y1914500D01*
D02*
G37*
G36*
X2461487Y1894500D02*
Y1885500D01*
X2444283Y1876000D01*
Y1904000D01*
X2461487Y1894500D01*
D02*
G37*
G36*
X1788379Y1879455D02*
X1770314Y1861599D01*
X1760110Y1870000D01*
X1779998Y1889710D01*
X1788379Y1879455D01*
D02*
G37*
G36*
X2465717Y1826000D02*
X2448513Y1835500D01*
Y1844500D01*
X2465717Y1854000D01*
Y1826000D01*
D02*
G37*
G36*
X2073038Y1819403D02*
X2058001Y1829805D01*
X2060043Y1838806D01*
X2079066Y1846746D01*
X2073038Y1819403D01*
D02*
G37*
G36*
X1714600Y1899030D02*
Y1880969D01*
X1721512Y1864283D01*
X1734283Y1851512D01*
X1742520Y1848100D01*
X1739993Y1835400D01*
X1730969D01*
X1714283Y1828488D01*
X1701512Y1815717D01*
X1695134Y1800318D01*
X1694002Y1798940D01*
X1672531Y1777468D01*
X1664110Y1764866D01*
X1661153Y1750000D01*
Y1431744D01*
X1648453Y1426484D01*
X1378847Y1696091D01*
Y1778987D01*
X1391547Y1784248D01*
X1394283Y1781512D01*
X1410969Y1774600D01*
X1429031D01*
X1445717Y1781512D01*
X1458488Y1794283D01*
X1465400Y1810969D01*
Y1829031D01*
X1458488Y1845717D01*
X1450486Y1853720D01*
Y1877373D01*
X1482627Y1909514D01*
X1707595D01*
X1714600Y1899030D01*
D02*
G37*
G36*
X1739800Y1770001D02*
X1729570Y1761610D01*
X1711610Y1779570D01*
X1720001Y1789800D01*
X1739800Y1770001D01*
D02*
G37*
G36*
X2158390Y1709470D02*
X2140430Y1691510D01*
X2130200Y1699901D01*
X2149999Y1719700D01*
X2158390Y1709470D01*
D02*
G37*
G36*
X2054000Y1684283D02*
X2026000D01*
X2027300Y1697450D01*
X2052700D01*
X2054000Y1684283D01*
D02*
G37*
G36*
X1885447Y1689083D02*
X1879999Y1670200D01*
X1860200Y1689999D01*
X1879083Y1695447D01*
X1885447Y1689083D01*
D02*
G37*
G36*
X3247450Y1652700D02*
Y1627300D01*
X3234283Y1626000D01*
Y1654000D01*
X3247450Y1652700D01*
D02*
G37*
G36*
X1967450Y1602700D02*
Y1577300D01*
X1954283Y1576000D01*
Y1604000D01*
X1967450Y1602700D01*
D02*
G37*
G36*
X3097203Y1440727D02*
X3084035Y1442027D01*
Y1467427D01*
X3097203Y1468727D01*
Y1440727D01*
D02*
G37*
G36*
X3652700Y1402550D02*
X3627300D01*
X3626000Y1415717D01*
X3654000D01*
X3652700Y1402550D01*
D02*
G37*
G36*
X2705717Y1396000D02*
X2692550Y1397300D01*
Y1422700D01*
X2705717Y1424000D01*
Y1396000D01*
D02*
G37*
G36*
X1751153Y1743370D02*
X1755084Y1742247D01*
X1761153Y1738192D01*
Y1590000D01*
X1764111Y1575134D01*
X1772531Y1562532D01*
X1852531Y1482531D01*
X1865134Y1474111D01*
X1880000Y1471154D01*
X2773909D01*
X2873231Y1371831D01*
X2885834Y1363411D01*
X2900700Y1360453D01*
X3017769D01*
X3024600Y1350230D01*
Y1332170D01*
X3017668Y1321796D01*
X2930300D01*
X2918438Y1319436D01*
X2908383Y1312717D01*
X2901664Y1302662D01*
X2899304Y1290800D01*
Y1189200D01*
X2901664Y1177339D01*
X2908383Y1167283D01*
X2918438Y1160564D01*
X2930300Y1158204D01*
X3209700D01*
X3221562Y1160564D01*
X3231617Y1167283D01*
X3238336Y1177339D01*
X3240696Y1189200D01*
Y1290800D01*
X3238336Y1302662D01*
X3231617Y1312717D01*
X3221562Y1319436D01*
X3209700Y1321796D01*
X3122332D01*
X3115400Y1332170D01*
Y1350230D01*
X3120445Y1357780D01*
X3276982D01*
X3281842Y1346047D01*
X3281512Y1345717D01*
X3274600Y1329031D01*
Y1310969D01*
X3281512Y1294283D01*
X3294283Y1281512D01*
X3310969Y1274600D01*
X3329031D01*
X3345717Y1281512D01*
X3358488Y1294283D01*
X3365400Y1310969D01*
Y1313868D01*
X3378100Y1319128D01*
X3514697Y1182532D01*
X3527300Y1174111D01*
X3542165Y1171154D01*
X3564600D01*
Y1148620D01*
X3564283Y1148488D01*
X3551512Y1135717D01*
X3544600Y1119031D01*
Y1100969D01*
X3551512Y1084283D01*
X3564283Y1071512D01*
X3580969Y1064600D01*
X3599031D01*
X3615717Y1071512D01*
X3628488Y1084283D01*
X3635400Y1100969D01*
Y1119031D01*
X3633532Y1123540D01*
X3640588Y1134100D01*
X3691153D01*
Y1026090D01*
X3573910Y908847D01*
X2449646D01*
X2441497Y921547D01*
X2445400Y930969D01*
Y949031D01*
X2442052Y957114D01*
X2728939Y1244002D01*
X2730318Y1245133D01*
X2745717Y1251512D01*
X2758488Y1264283D01*
X2765400Y1280969D01*
Y1299031D01*
X2758488Y1315717D01*
X2745717Y1328488D01*
X2729031Y1335400D01*
X2710969D01*
X2694283Y1328488D01*
X2681512Y1315717D01*
X2675133Y1300318D01*
X2674002Y1298939D01*
X2373214Y998151D01*
X2364793Y985549D01*
X2361836Y970683D01*
Y967223D01*
X2361687Y965892D01*
X2361512Y965717D01*
X2354600Y949031D01*
Y930969D01*
X2358503Y921547D01*
X2350354Y908847D01*
X2136091D01*
X2038847Y1006091D01*
Y1198987D01*
X2051547Y1204248D01*
X2054283Y1201512D01*
X2070969Y1194600D01*
X2089031D01*
X2105717Y1201512D01*
X2118488Y1214283D01*
X2124866Y1229682D01*
X2125998Y1231061D01*
X2266090Y1371153D01*
X2693795D01*
X2695571Y1370978D01*
X2710969Y1364600D01*
X2729031D01*
X2745717Y1371512D01*
X2758488Y1384283D01*
X2765400Y1400969D01*
Y1419031D01*
X2758488Y1435717D01*
X2745717Y1448488D01*
X2729031Y1455400D01*
X2710969D01*
X2695571Y1449022D01*
X2693795Y1448846D01*
X2250000D01*
X2235134Y1445889D01*
X2222531Y1437469D01*
X2071060Y1285998D01*
X2069681Y1284867D01*
X2054283Y1278488D01*
X2051547Y1275752D01*
X2038847Y1281013D01*
Y1363795D01*
X2039022Y1365571D01*
X2045400Y1380969D01*
Y1399031D01*
X2038488Y1415717D01*
X2025717Y1428488D01*
X2009031Y1435400D01*
X1990969D01*
X1974283Y1428488D01*
X1961512Y1415717D01*
X1954600Y1399031D01*
Y1380969D01*
X1960978Y1365571D01*
X1961154Y1363795D01*
Y990000D01*
X1964111Y975134D01*
X1972531Y962531D01*
X2064483Y870580D01*
X2059623Y858846D01*
X2006091D01*
X1738846Y1126091D01*
Y1390355D01*
X1751547Y1398503D01*
X1757300Y1396120D01*
Y1440000D01*
Y1483880D01*
X1751547Y1481497D01*
X1738846Y1489645D01*
Y1733909D01*
X1748453Y1743516D01*
X1751153Y1743370D01*
D02*
G37*
G36*
X2012700Y1362550D02*
X1987300D01*
X1986000Y1375717D01*
X2014000D01*
X2012700Y1362550D01*
D02*
G37*
G36*
X2719800Y1270001D02*
X2709570Y1261610D01*
X2691610Y1279570D01*
X2700001Y1289800D01*
X2719800Y1270001D01*
D02*
G37*
G36*
X3468951Y1475000D02*
X3470923Y1465089D01*
X3476537Y1456687D01*
X3484938Y1451074D01*
X3494849Y1449102D01*
X3564600D01*
Y1374100D01*
Y1260463D01*
X3551900Y1255202D01*
X3383007Y1424095D01*
X3370404Y1432516D01*
X3355539Y1435473D01*
X3163716D01*
X3156885Y1445696D01*
Y1463758D01*
X3149974Y1480444D01*
X3137203Y1493215D01*
X3120516Y1500127D01*
X3102455D01*
X3087057Y1493749D01*
X3085281Y1493573D01*
X3051364D01*
X3025922Y1519016D01*
X3028612Y1527024D01*
X3031745Y1531153D01*
X3468951D01*
Y1475000D01*
D02*
G37*
G36*
X2108390Y1250430D02*
X2099999Y1240200D01*
X2080200Y1259999D01*
X2090430Y1268390D01*
X2108390Y1250430D01*
D02*
G37*
G36*
X3904000Y1074283D02*
X3876000D01*
X3877300Y1087450D01*
X3902700D01*
X3904000Y1074283D01*
D02*
G37*
G36*
X3902700Y1032550D02*
X3877300D01*
X3876000Y1045717D01*
X3904000D01*
X3902700Y1032550D01*
D02*
G37*
G36*
X2413383Y966863D02*
X2414479Y953796D01*
X2386496Y954752D01*
X2387983Y967987D01*
X2413383Y966863D01*
D02*
G37*
G36*
X1962532Y792531D02*
X1964005Y791547D01*
X1960153Y778847D01*
X1826091D01*
X1668847Y936091D01*
Y1068256D01*
X1681547Y1073516D01*
X1962532Y792531D01*
D02*
G37*
G36*
X3963000Y1134100D02*
X3974104Y1130246D01*
Y25896D01*
X187541D01*
X182281Y38596D01*
X191300Y47616D01*
X204676Y70784D01*
X211600Y96624D01*
Y123376D01*
X204676Y149216D01*
X191300Y172384D01*
X200624Y180535D01*
X314606Y66553D01*
X562659Y314606D01*
X469969Y407296D01*
X601286Y538613D01*
X680796D01*
X686145Y533264D01*
X702816Y522124D01*
X722482Y518213D01*
X877518D01*
X897183Y522124D01*
X913854Y533264D01*
X919203Y538613D01*
X3020000D01*
X3039665Y542524D01*
X3056336Y553664D01*
X3077272Y574600D01*
X3078610D01*
X3095243Y579057D01*
X3110157Y587667D01*
X3122333Y599843D01*
X3130943Y614756D01*
X3135400Y631390D01*
Y648610D01*
X3130943Y665244D01*
X3122333Y680157D01*
X3114036Y688454D01*
X3119297Y701154D01*
X3650000D01*
X3664866Y704111D01*
X3677469Y712531D01*
X3837469Y872531D01*
X3838454Y874005D01*
X3851154Y870153D01*
Y776091D01*
X3403909Y328846D01*
X2296205D01*
X2294429Y329022D01*
X2279031Y335400D01*
X2260969D01*
X2244283Y328488D01*
X2231512Y315717D01*
X2224600Y299031D01*
Y280969D01*
X2231512Y264283D01*
X2244283Y251512D01*
X2260969Y244600D01*
X2279031D01*
X2294429Y250978D01*
X2296205Y251153D01*
X3420000D01*
X3434866Y254110D01*
X3447469Y262531D01*
X3917469Y732531D01*
X3925890Y745134D01*
X3928847Y760000D01*
Y1033795D01*
X3929022Y1035571D01*
X3935400Y1050969D01*
Y1069031D01*
X3929022Y1084429D01*
X3928847Y1086205D01*
Y1134100D01*
X3963000D01*
Y1134100D01*
D02*
G37*
G36*
X2297450Y302700D02*
Y277300D01*
X2284283Y276000D01*
Y304000D01*
X2297450Y302700D01*
D02*
G37*
%LPC*%
G36*
X2999031Y2895400D02*
X2980969D01*
X2964283Y2888488D01*
X2951512Y2875717D01*
X2944600Y2859031D01*
Y2840969D01*
X2951512Y2824283D01*
X2964283Y2811512D01*
X2980969Y2804600D01*
X2999031D01*
X3015717Y2811512D01*
X3028488Y2824283D01*
X3035400Y2840969D01*
Y2859031D01*
X3028488Y2875717D01*
X3015717Y2888488D01*
X2999031Y2895400D01*
D02*
G37*
G36*
X2818401Y2800440D02*
X2703354Y2685394D01*
X2818401Y2570348D01*
X2933447Y2685394D01*
X2818401Y2800440D01*
D02*
G37*
G36*
X3349031Y2105400D02*
X3330969D01*
X3314283Y2098488D01*
X3301512Y2085717D01*
X3294600Y2069031D01*
Y2050969D01*
X3301512Y2034283D01*
X3314283Y2021512D01*
X3330969Y2014600D01*
X3349031D01*
X3365717Y2021512D01*
X3378488Y2034283D01*
X3385400Y2050969D01*
Y2069031D01*
X3378488Y2085717D01*
X3365717Y2098488D01*
X3349031Y2105400D01*
D02*
G37*
G36*
X931218Y2940400D02*
X904782D01*
X879247Y2933558D01*
X856353Y2920340D01*
X837660Y2901647D01*
X824442Y2878753D01*
X817600Y2853218D01*
Y2826782D01*
X824442Y2801247D01*
X837660Y2778353D01*
X856353Y2759660D01*
X879247Y2746442D01*
X904782Y2739600D01*
X931218D01*
X956753Y2746442D01*
X979647Y2759660D01*
X998340Y2778353D01*
X1011558Y2801247D01*
X1018400Y2826782D01*
Y2853218D01*
X1011558Y2878753D01*
X998340Y2901647D01*
X979647Y2920340D01*
X956753Y2933558D01*
X931218Y2940400D01*
D02*
G37*
G36*
X677218D02*
X650782D01*
X625247Y2933558D01*
X602353Y2920340D01*
X583660Y2901647D01*
X570442Y2878753D01*
X563600Y2853218D01*
Y2826782D01*
X570442Y2801247D01*
X583660Y2778353D01*
X602353Y2759660D01*
X625247Y2746442D01*
X650782Y2739600D01*
X677218D01*
X702753Y2746442D01*
X725647Y2759660D01*
X744340Y2778353D01*
X757558Y2801247D01*
X764400Y2826782D01*
Y2853218D01*
X757558Y2878753D01*
X744340Y2901647D01*
X725647Y2920340D01*
X702753Y2933558D01*
X677218Y2940400D01*
D02*
G37*
G36*
X169218D02*
X142782D01*
X117247Y2933558D01*
X94353Y2920340D01*
X75660Y2901647D01*
X62442Y2878753D01*
X55600Y2853218D01*
Y2826782D01*
X62442Y2801247D01*
X75660Y2778353D01*
X94353Y2759660D01*
X117247Y2746442D01*
X142782Y2739600D01*
X169218D01*
X194753Y2746442D01*
X217647Y2759660D01*
X236340Y2778353D01*
X249558Y2801247D01*
X256400Y2826782D01*
Y2853218D01*
X249558Y2878753D01*
X236340Y2901647D01*
X217647Y2920340D01*
X194753Y2933558D01*
X169218Y2940400D01*
D02*
G37*
G36*
X288610Y2715400D02*
X271390D01*
X254756Y2710943D01*
X239843Y2702333D01*
X227667Y2690157D01*
X219057Y2675244D01*
X214600Y2658610D01*
Y2641390D01*
X219057Y2624756D01*
X227667Y2609843D01*
X239843Y2597667D01*
X254756Y2589057D01*
X271390Y2584600D01*
X288610D01*
X305243Y2589057D01*
X320157Y2597667D01*
X332333Y2609843D01*
X340943Y2624756D01*
X345400Y2641390D01*
Y2658610D01*
X340943Y2675244D01*
X332333Y2690157D01*
X320157Y2702333D01*
X305243Y2710943D01*
X288610Y2715400D01*
D02*
G37*
G36*
X267300Y1903880D02*
X254283Y1898488D01*
X248297Y1892502D01*
X240000Y1886763D01*
X231703Y1892502D01*
X225717Y1898488D01*
X212700Y1903880D01*
Y1860000D01*
Y1816120D01*
X225717Y1821512D01*
X231703Y1827498D01*
X240000Y1833237D01*
X248297Y1827498D01*
X254283Y1821512D01*
X267300Y1816120D01*
Y1860000D01*
Y1903880D01*
D02*
G37*
G36*
X292700D02*
Y1872700D01*
X323880D01*
X318488Y1885717D01*
X305717Y1898488D01*
X292700Y1903880D01*
D02*
G37*
G36*
X187300D02*
X174283Y1898488D01*
X161512Y1885717D01*
X156120Y1872700D01*
X187300D01*
Y1903880D01*
D02*
G37*
G36*
X323880Y1847300D02*
X292700D01*
Y1816120D01*
X305717Y1821512D01*
X318488Y1834283D01*
X323880Y1847300D01*
D02*
G37*
G36*
X187300D02*
X156120D01*
X161512Y1834283D01*
X174283Y1821512D01*
X187300Y1816120D01*
Y1847300D01*
D02*
G37*
G36*
X799031Y1965400D02*
X780969D01*
X764283Y1958488D01*
X751512Y1945717D01*
X744600Y1929031D01*
Y1910969D01*
X750978Y1895571D01*
X751153Y1893795D01*
Y1776205D01*
X750978Y1774429D01*
X744600Y1759031D01*
Y1740969D01*
X751512Y1724283D01*
X764283Y1711512D01*
X780969Y1704600D01*
X799031D01*
X815717Y1711512D01*
X828488Y1724283D01*
X835400Y1740969D01*
Y1759031D01*
X829022Y1774429D01*
X828846Y1776205D01*
Y1893795D01*
X829022Y1895571D01*
X835400Y1910969D01*
Y1929031D01*
X828488Y1945717D01*
X815717Y1958488D01*
X799031Y1965400D01*
D02*
G37*
G36*
X399031Y1995400D02*
X380969D01*
X364283Y1988488D01*
X351512Y1975717D01*
X344600Y1959031D01*
Y1940969D01*
X350978Y1925571D01*
X351153Y1923795D01*
Y1629679D01*
X354111Y1614813D01*
X362531Y1602210D01*
X363609Y1601133D01*
X364600Y1599851D01*
Y1598469D01*
X371512Y1581783D01*
X384283Y1569012D01*
X400969Y1562100D01*
X419031D01*
X435717Y1569012D01*
X448488Y1581783D01*
X455400Y1598469D01*
Y1616531D01*
X448488Y1633217D01*
X435717Y1645988D01*
X428846Y1648834D01*
Y1923795D01*
X429022Y1925571D01*
X435400Y1940969D01*
Y1959031D01*
X428488Y1975717D01*
X415717Y1988488D01*
X399031Y1995400D01*
D02*
G37*
G36*
X1282700Y1553880D02*
Y1522700D01*
X1313880D01*
X1308488Y1535717D01*
X1295717Y1548488D01*
X1282700Y1553880D01*
D02*
G37*
G36*
X1257300D02*
X1244283Y1548488D01*
X1231512Y1535717D01*
X1226120Y1522700D01*
X1257300D01*
Y1553880D01*
D02*
G37*
G36*
X1313880Y1497300D02*
X1282700D01*
Y1466120D01*
X1295717Y1471512D01*
X1308488Y1484283D01*
X1313880Y1497300D01*
D02*
G37*
G36*
X1257300D02*
X1226120D01*
X1231512Y1484283D01*
X1244283Y1471512D01*
X1257300Y1466120D01*
Y1497300D01*
D02*
G37*
G36*
X1507300Y1397300D02*
X1476120D01*
X1481512Y1384283D01*
X1494283Y1371512D01*
X1507300Y1366120D01*
Y1397300D01*
D02*
G37*
%LPD*%
G36*
X802700Y1892550D02*
X777300D01*
X776000Y1905717D01*
X804000D01*
X802700Y1892550D01*
D02*
G37*
G36*
X804000Y1764283D02*
X776000D01*
X777300Y1777450D01*
X802700D01*
X804000Y1764283D01*
D02*
G37*
G36*
X402700Y1922550D02*
X377300D01*
X376000Y1935717D01*
X404000D01*
X402700Y1922550D01*
D02*
G37*
G36*
X411341Y1627455D02*
X390076Y1609240D01*
X381888Y1619831D01*
X401655Y1635985D01*
X411341Y1627455D01*
D02*
G37*
%LPC*%
G36*
X1782700Y1483880D02*
Y1452700D01*
X1813880D01*
X1808488Y1465717D01*
X1795717Y1478488D01*
X1782700Y1483880D01*
D02*
G37*
G36*
X1813880Y1427300D02*
X1782700D01*
Y1396120D01*
X1795717Y1401512D01*
X1808488Y1414283D01*
X1813880Y1427300D01*
D02*
G37*
G36*
X2469031Y1215400D02*
X2450969D01*
X2434283Y1208488D01*
X2421512Y1195717D01*
X2414600Y1179031D01*
Y1160969D01*
X2421512Y1144283D01*
X2434283Y1131512D01*
X2450969Y1124600D01*
X2469031D01*
X2485717Y1131512D01*
X2498488Y1144283D01*
X2505400Y1160969D01*
Y1179031D01*
X2498488Y1195717D01*
X2485717Y1208488D01*
X2469031Y1215400D01*
D02*
G37*
G36*
X2279031D02*
X2260969D01*
X2244283Y1208488D01*
X2231512Y1195717D01*
X2224600Y1179031D01*
Y1160969D01*
X2231512Y1144283D01*
X2244283Y1131512D01*
X2260969Y1124600D01*
X2279031D01*
X2295717Y1131512D01*
X2308488Y1144283D01*
X2315400Y1160969D01*
Y1179031D01*
X2308488Y1195717D01*
X2295717Y1208488D01*
X2279031Y1215400D01*
D02*
G37*
G36*
X3359031Y1155400D02*
X3340969D01*
X3324283Y1148488D01*
X3311512Y1135717D01*
X3304600Y1119031D01*
Y1100969D01*
X3311512Y1084283D01*
X3324283Y1071512D01*
X3340969Y1064600D01*
X3359031D01*
X3375717Y1071512D01*
X3388488Y1084283D01*
X3395400Y1100969D01*
Y1119031D01*
X3388488Y1135717D01*
X3375717Y1148488D01*
X3359031Y1155400D01*
D02*
G37*
G36*
X3183376Y581600D02*
X3156624D01*
X3130784Y574676D01*
X3107616Y561300D01*
X3088700Y542384D01*
X3075324Y519216D01*
X3068400Y493376D01*
Y466624D01*
X3075324Y440784D01*
X3088700Y417616D01*
X3107616Y398700D01*
X3130784Y385324D01*
X3156624Y378400D01*
X3183376D01*
X3209216Y385324D01*
X3232384Y398700D01*
X3251300Y417616D01*
X3264676Y440784D01*
X3271600Y466624D01*
Y493376D01*
X3264676Y519216D01*
X3251300Y542384D01*
X3232384Y561300D01*
X3209216Y574676D01*
X3183376Y581600D01*
D02*
G37*
G36*
X919700Y304296D02*
X640300D01*
X628438Y301936D01*
X618383Y295217D01*
X611664Y285162D01*
X609304Y273300D01*
Y171700D01*
X611664Y159839D01*
X618383Y149783D01*
X628438Y143064D01*
X640300Y140705D01*
X919700D01*
X931562Y143064D01*
X941617Y149783D01*
X948336Y159839D01*
X950696Y171700D01*
Y273300D01*
X948336Y285162D01*
X941617Y295217D01*
X931562Y301936D01*
X919700Y304296D01*
D02*
G37*
%LPD*%
D10*
X1920000Y2080000D02*
D03*
X1740000Y2130000D02*
D03*
D38*
X314606Y354606D02*
X350000Y390000D01*
X314606Y314606D02*
Y324606D01*
Y314606D02*
Y354606D01*
X129259Y2250000D02*
X2120000D01*
X65433Y2186175D02*
X129259Y2250000D01*
X2120000D02*
X2420000Y1950000D01*
X2900000Y1590000D02*
X3035273Y1454727D01*
X3111486D01*
X3640000Y1324500D02*
Y1444500D01*
X2040000Y1720000D02*
X2100000Y1780000D01*
X3770000Y1400000D02*
X3814379Y1444379D01*
X2130000Y1719900D02*
X2209900Y1640000D01*
X3220000D02*
X3470000D01*
X2900700Y1399300D02*
X3094066D01*
X3730000Y1010000D02*
Y1520000D01*
X3470000Y1640000D02*
X3514500Y1684500D01*
X3640000D01*
X2100000Y1780000D02*
X2470000D01*
X2540000Y1710000D01*
X3410000D01*
X3510000Y1810000D01*
X3634500D01*
X3640000Y1804500D01*
X3887479Y1444379D02*
X3887600Y1444500D01*
X3814379Y1444379D02*
X3887479D01*
X2209900Y1640000D02*
X2960000D01*
X3030000Y1570000D01*
X3634500D01*
X3640000Y1564500D01*
X3634500Y1210000D02*
X3640000Y1204500D01*
X3542165Y1210000D02*
X3634500D01*
X3355539Y1396627D02*
X3542165Y1210000D01*
X3096739Y1396627D02*
X3355539D01*
X3094066Y1399300D02*
X3096739Y1396627D01*
X3774500Y1564500D02*
X3887600D01*
X3730000Y1520000D02*
X3774500Y1564500D01*
X2000000Y990000D02*
Y1390000D01*
Y990000D02*
X2120000Y870000D01*
X3590000D01*
X3730000Y1010000D01*
X1420000Y1990000D02*
X1770000D01*
X1340000Y1910000D02*
X1420000Y1990000D01*
X1340000Y1680000D02*
Y1910000D01*
Y1680000D02*
X1630000Y1390000D01*
Y920000D02*
Y1390000D01*
Y920000D02*
X1810000Y740000D01*
X3650000D01*
X3810000Y900000D01*
Y1300000D01*
X3830000Y1320000D01*
X3883100D01*
X3887600Y1324500D01*
X3890000Y1060000D02*
Y1202100D01*
X3887600Y1204500D02*
X3890000Y1202100D01*
X1760000Y1889873D02*
Y1890000D01*
Y1889873D02*
X1800000Y1849873D01*
Y1590000D02*
Y1849873D01*
Y1590000D02*
X1880000Y1510000D01*
X2790000D01*
X2900700Y1399300D01*
X1700000Y1750000D02*
X1740000Y1790000D01*
X1700000Y1110000D02*
Y1750000D01*
Y1110000D02*
X1990000Y820000D01*
X3630000D01*
X3770000Y960000D01*
Y1400000D01*
X2040000Y1670000D02*
Y1720000D01*
X3890000Y760000D02*
Y1060000D01*
X2420000Y1950000D02*
X2535394D01*
X2750000Y2050000D02*
X2900000D01*
X2270000Y290000D02*
X3420000D01*
X3890000Y760000D01*
X1463549Y2100000D02*
X1473549Y2090000D01*
X990000Y2100000D02*
X1463549D01*
X1473549Y2090000D02*
X1477500D01*
X2146969Y2653031D02*
X2750000Y2050000D01*
X2680000Y1980000D02*
X2840000D01*
X2120000Y2540000D02*
X2680000Y1980000D01*
X2535394Y1950000D02*
X2585636Y1899758D01*
X790000Y1750000D02*
Y1920000D01*
X410000Y1607500D02*
Y1609679D01*
X390000Y1629679D02*
Y1950000D01*
Y1629679D02*
X410000Y1609679D01*
X2400000Y940000D02*
X2400683Y940683D01*
Y970683D01*
X2720000Y1290000D01*
X2250000Y1410000D02*
X2720000D01*
X2080000Y1240000D02*
X2250000Y1410000D01*
X1940000Y1590000D02*
X2900000D01*
X890000Y2430000D02*
X980000Y2340000D01*
X810000Y2430000D02*
X890000D01*
X1310000Y2340000D02*
X1370000Y2400000D01*
X980000Y2340000D02*
X1310000D01*
X863723Y2528285D02*
X865438Y2530000D01*
X808972Y2528285D02*
X863723D01*
X806178Y2525491D02*
X808972Y2528285D01*
X865438Y2530000D02*
X900000D01*
X1025000Y2405000D01*
X1189575D01*
X1250000Y2460000D02*
X1460000D01*
X1190000Y2520000D02*
X1250000Y2460000D01*
X1540000Y2540000D02*
X2120000D01*
X1460000Y2460000D02*
X1540000Y2540000D01*
X1493031Y2653031D02*
X2146969D01*
X1370000Y2530000D02*
X1493031Y2653031D01*
D39*
X460000Y2180000D02*
Y2184057D01*
X486659Y2210716D01*
X1420000Y1890000D02*
X1470000Y1940000D01*
X1420000Y1820000D02*
Y1890000D01*
X1470000Y1940000D02*
X1820000D01*
X486659Y2210716D02*
X2080628D01*
X2155920Y2135425D01*
X1650000Y2130000D02*
X2030000D01*
X690000Y2140000D02*
X730000Y2180000D01*
X1600000Y2080000D02*
X1950806D01*
X1970806Y2060000D01*
X730000Y2180000D02*
X2070000D01*
X2110000Y2140000D01*
Y2020000D02*
Y2140000D01*
X1970806Y2060000D02*
X2050000D01*
X2626638Y2443362D02*
X2696638D01*
X2890000Y2250000D01*
X2290000Y2780000D02*
X2626638Y2443362D01*
X2630000Y1830000D02*
X2650000Y1850000D01*
X2570000Y1830000D02*
X2630000D01*
X2510000Y1890000D02*
X2570000Y1830000D01*
X2197477Y2254688D02*
X2201083Y2251083D01*
X2175312Y2254688D02*
X2197477D01*
X1930000Y2420000D02*
X2010000D01*
X2175312Y2254688D01*
X2310000Y1960000D02*
Y2010000D01*
X2270000Y2050000D02*
X2310000Y2010000D01*
X2220000Y2050000D02*
X2270000D01*
X2130000Y1960000D02*
X2220000Y2050000D01*
X2110000Y2500000D02*
X2300000Y2310000D01*
X1650000Y2500000D02*
X2110000D01*
X1450000Y2300000D02*
X1650000Y2500000D01*
X660000Y2300000D02*
X1450000D01*
X2300000Y2130000D02*
Y2310000D01*
Y2130000D02*
X2430000Y2000000D01*
X2570000D02*
X2650000Y1920000D01*
X2430000Y2000000D02*
X2570000D01*
X2430000Y1890000D02*
X2510000D01*
X2170000Y1840000D02*
X2480000D01*
X2140000Y1870000D02*
X2170000Y1840000D01*
X2890000Y2180000D02*
Y2250000D01*
X2869431Y2110000D02*
X2960000D01*
X2130000Y2750000D02*
X2229431D01*
X2869431Y2110000D01*
X2100000Y2780000D02*
X2290000D01*
X1910000Y1960000D02*
X2130000D01*
X2280000Y1930000D02*
X2310000Y1960000D01*
X2160000Y1910000D02*
X2250000Y2000000D01*
X2070000Y1910000D02*
X2160000D01*
X2056500Y1834305D02*
X2085694D01*
X2050806Y1840000D02*
X2056500Y1834305D01*
X2085694D02*
X2090000Y1830000D01*
X2030000Y1840000D02*
X2050806D01*
X1860000Y1670000D02*
X2030000Y1840000D01*
X2650000Y1850000D02*
Y1920000D01*
X410000Y2550000D02*
X660000Y2300000D01*
X410000Y2550000D02*
Y2840000D01*
X1840000Y2030000D02*
X1910000Y1960000D01*
X1820000Y1940000D02*
X1890000Y1870000D01*
X2140000D01*
X2070000Y2690000D02*
X2130000Y2750000D01*
X1322000Y2690000D02*
X2070000D01*
X1172000Y2840000D02*
X1322000Y2690000D01*
X1426000Y2840000D02*
X1546000Y2720000D01*
X2040000D02*
X2100000Y2780000D01*
X1546000Y2720000D02*
X2040000D01*
D40*
X580000Y590000D02*
X702082D01*
X329606Y339606D02*
X365000Y375000D01*
X314606Y324606D02*
X329606Y339606D01*
X365000Y375000D02*
X580000Y590000D01*
X702082D02*
X722482Y569600D01*
X877518D01*
X897918Y590000D01*
X3020000D01*
X3070000Y640000D01*
X2560000Y2930000D02*
X2685394Y2804606D01*
X2024000Y2930000D02*
X2560000D01*
X1934000Y2840000D02*
X2024000Y2930000D01*
D49*
X280000Y2650000D02*
D03*
X3410000Y2240000D02*
D03*
X350000Y390000D02*
D03*
X3070000Y640000D02*
D03*
D50*
X3170000Y480000D02*
D03*
X110000Y110000D02*
D03*
D51*
X156000Y2840000D02*
D03*
X410000D02*
D03*
X664000D02*
D03*
X918000D02*
D03*
X1172000D02*
D03*
X1426000D02*
D03*
X1680000D02*
D03*
D52*
X1934000D02*
D03*
D53*
X3910003Y560002D02*
D03*
X3860003Y460002D02*
D03*
X3910003Y360002D02*
D03*
X3860003Y260002D02*
D03*
X3910003Y160001D02*
D03*
X3860003Y60001D02*
D03*
X3810003Y560002D02*
D03*
X3760003Y460002D02*
D03*
X3810003Y360002D02*
D03*
X3760003Y260002D02*
D03*
X3810003Y160001D02*
D03*
X3760003Y60001D02*
D03*
X3660003Y660002D02*
D03*
X3710003Y360002D02*
D03*
X3660003Y260002D02*
D03*
X3710003Y160001D02*
D03*
X3660003Y60001D02*
D03*
X3560003Y660002D02*
D03*
X3610003Y360002D02*
D03*
X3560003Y260002D02*
D03*
X3610003Y160001D02*
D03*
X3560003Y60001D02*
D03*
X3510003Y960002D02*
D03*
X3460003Y660002D02*
D03*
X3510003Y560002D02*
D03*
X3460003Y460002D02*
D03*
X3510003Y160001D02*
D03*
X3460003Y60001D02*
D03*
X3410003Y960002D02*
D03*
X3360003Y660002D02*
D03*
X3410003Y560002D02*
D03*
X3360003Y460002D02*
D03*
X3410003Y160001D02*
D03*
X3360003Y60001D02*
D03*
X3310003Y960002D02*
D03*
X3260003Y660002D02*
D03*
X3310003Y560002D02*
D03*
Y360002D02*
D03*
Y160001D02*
D03*
X3260003Y60001D02*
D03*
X3210003Y960002D02*
D03*
X3160003Y660002D02*
D03*
X3210003Y360002D02*
D03*
Y160001D02*
D03*
X3160003Y60001D02*
D03*
X3110003Y360002D02*
D03*
Y160001D02*
D03*
X3060003Y60001D02*
D03*
X3010003Y360002D02*
D03*
Y160001D02*
D03*
X2960003Y60001D02*
D03*
X2910003Y960002D02*
D03*
Y160001D02*
D03*
X2860003Y60001D02*
D03*
X2810003Y960002D02*
D03*
Y360002D02*
D03*
Y160001D02*
D03*
X2760003Y60001D02*
D03*
X2710003Y960002D02*
D03*
X2660003Y460002D02*
D03*
X2710003Y360002D02*
D03*
Y160001D02*
D03*
X2660003Y60001D02*
D03*
X2610003Y360002D02*
D03*
Y160001D02*
D03*
X2560003Y60001D02*
D03*
X2460003Y460002D02*
D03*
X2510003Y360002D02*
D03*
Y160001D02*
D03*
X2460003Y60001D02*
D03*
X2410003Y360002D02*
D03*
Y160001D02*
D03*
X2160003Y60001D02*
D03*
X2060002Y2860003D02*
D03*
X1960002Y460002D02*
D03*
X1860002D02*
D03*
X1910002Y360002D02*
D03*
Y160001D02*
D03*
X1760002Y460002D02*
D03*
X1660002D02*
D03*
Y60001D02*
D03*
X1560002Y2860003D02*
D03*
Y460002D02*
D03*
X1510002Y960002D02*
D03*
X1460002Y460002D02*
D03*
Y60001D02*
D03*
X1410002Y1360002D02*
D03*
Y360002D02*
D03*
Y160001D02*
D03*
X1360002Y60001D02*
D03*
X1260002Y2660003D02*
D03*
Y1860002D02*
D03*
X1310002Y960002D02*
D03*
X1260002Y60001D02*
D03*
X1160002Y2660003D02*
D03*
Y1860002D02*
D03*
X1210002Y1760002D02*
D03*
Y960002D02*
D03*
Y360002D02*
D03*
Y160001D02*
D03*
X1160002Y60001D02*
D03*
X1060002Y2660003D02*
D03*
Y1460002D02*
D03*
X1110002Y1360002D02*
D03*
X1060002Y1060002D02*
D03*
X1110002Y960002D02*
D03*
X1060002Y60001D02*
D03*
X1010002Y2760003D02*
D03*
X960002Y2660003D02*
D03*
X1010002Y2560003D02*
D03*
X960002Y1460002D02*
D03*
X1010002Y960002D02*
D03*
X960002Y60001D02*
D03*
X910002Y1760002D02*
D03*
Y1560002D02*
D03*
X860002Y1460002D02*
D03*
Y1060002D02*
D03*
X910002Y960002D02*
D03*
X810002Y2760003D02*
D03*
X760002Y1460002D02*
D03*
X810002Y1360002D02*
D03*
Y960002D02*
D03*
X760002Y860002D02*
D03*
X660002Y2060002D02*
D03*
X710002Y1960002D02*
D03*
X660002Y1660002D02*
D03*
Y1460002D02*
D03*
X710002Y960002D02*
D03*
X660002Y860002D02*
D03*
X560002Y2060002D02*
D03*
X610002Y1960002D02*
D03*
Y1360002D02*
D03*
Y960002D02*
D03*
X560002Y460002D02*
D03*
X510002Y2760003D02*
D03*
Y1960002D02*
D03*
X460002Y1460002D02*
D03*
X360002D02*
D03*
Y1060002D02*
D03*
Y60001D02*
D03*
X310001Y2760003D02*
D03*
Y2560003D02*
D03*
X260002Y2460003D02*
D03*
X310001Y2360003D02*
D03*
Y2160003D02*
D03*
X260002Y1460002D02*
D03*
Y1060002D02*
D03*
Y60001D02*
D03*
X160001Y2660003D02*
D03*
X210001Y2560003D02*
D03*
X160001Y2460003D02*
D03*
X210001Y2360003D02*
D03*
Y2160003D02*
D03*
X160001Y1660002D02*
D03*
X210001Y1560002D02*
D03*
X160001Y1460002D02*
D03*
Y1060002D02*
D03*
X210001Y760002D02*
D03*
X60001Y2660003D02*
D03*
X110001Y2360003D02*
D03*
X60001Y2060002D02*
D03*
Y1860002D02*
D03*
Y1660002D02*
D03*
X110001Y1560002D02*
D03*
X60001Y1460002D02*
D03*
Y260002D02*
D03*
X1270000Y1510000D02*
D03*
X460000Y2180000D02*
D03*
X1650000Y2130000D02*
D03*
X2030000D02*
D03*
X2050000Y2060000D02*
D03*
X1600000Y2080000D02*
D03*
X2201083Y2251083D02*
D03*
X2200000Y2310000D02*
D03*
X2384802Y1928760D02*
D03*
X2430000Y1890000D02*
D03*
X2480000Y1840000D02*
D03*
X2155920Y2135425D02*
D03*
X2830000Y2220000D02*
D03*
X2890000Y2180000D02*
D03*
X2900000Y2050000D02*
D03*
X3320000Y1320000D02*
D03*
X3070000Y1341200D02*
D03*
X3111486Y1454727D02*
D03*
X2270000Y290000D02*
D03*
X2200000Y1730000D02*
D03*
X2250000Y2000000D02*
D03*
X2100000Y1650000D02*
D03*
X3100000Y1640000D02*
D03*
X3350000Y1110000D02*
D03*
X3590000D02*
D03*
X2750000Y2930000D02*
D03*
X1520000Y1410000D02*
D03*
X990000Y2100000D02*
D03*
X1770000Y1440000D02*
D03*
X2070000Y1910000D02*
D03*
X2090000Y1830000D02*
D03*
X280000Y1860000D02*
D03*
X200000D02*
D03*
X2270000Y1170000D02*
D03*
X2460000D02*
D03*
X3390000Y2900000D02*
D03*
X2990000Y2850000D02*
D03*
X2510000Y2840000D02*
D03*
X2270000D02*
D03*
X1620000Y2360000D02*
D03*
X3340000Y2060000D02*
D03*
X1860000Y1670000D02*
D03*
X2960000Y2110000D02*
D03*
X2840000Y1980000D02*
D03*
X690000Y2140000D02*
D03*
X2110000Y2020000D02*
D03*
X1760000Y1890000D02*
D03*
X1420000Y1820000D02*
D03*
X1770000Y1990000D02*
D03*
X790000Y1750000D02*
D03*
Y1920000D02*
D03*
X390000Y1950000D02*
D03*
X410000Y1607500D02*
D03*
X1477500Y2090000D02*
D03*
X2280000Y1930000D02*
D03*
X3640000Y1430000D02*
D03*
X3890000Y1060000D02*
D03*
X2000000Y1390000D02*
D03*
X2720000Y1410000D02*
D03*
X2400000Y940000D02*
D03*
X2720000Y1290000D02*
D03*
X2080000Y1240000D02*
D03*
X3220000Y1640000D02*
D03*
X1930000Y2420000D02*
D03*
X65433Y2186175D02*
D03*
X2585636Y1899758D02*
D03*
X1740000Y1790000D02*
D03*
X810000Y2430000D02*
D03*
X1370000Y2400000D02*
D03*
X806178Y2525491D02*
D03*
X1189575Y2405000D02*
D03*
X1190000Y2520000D02*
D03*
X1370000Y2530000D02*
D03*
X2040000Y1670000D02*
D03*
X1840000Y2030000D02*
D03*
X1940000Y1590000D02*
D03*
X2130000Y1719900D02*
D03*
D54*
X2510000Y2367500D02*
D03*
X2657500Y2220000D02*
D03*
X2362500D02*
D03*
X2510000Y2072500D02*
D03*
Y2220000D02*
D03*
X747500Y630000D02*
D03*
X852500D02*
D03*
D55*
X3469849Y2900000D02*
D03*
D56*
X3887600Y1804500D02*
D03*
Y1684500D02*
D03*
Y1564500D02*
D03*
Y1444500D02*
D03*
Y1324500D02*
D03*
Y1204500D02*
D03*
X3640000D02*
D03*
Y1324500D02*
D03*
Y1444500D02*
D03*
Y1684500D02*
D03*
Y1804500D02*
D03*
Y1564500D02*
D03*
D57*
X2685394Y2685394D02*
D03*
X314606Y314606D02*
D03*
D58*
X2685394Y2685394D02*
Y2824606D01*
%TF.MD5,bdcc2ce192266ccb3dccfe9304ac38d1*%
M02*
