%TF.GenerationSoftware,Altium Limited,Altium Designer,21.9.1 (22)*%
G04 Layer_Color=8388736*
%FSLAX45Y45*%
%MOMM*%
%TF.SameCoordinates,430BEF64-33ED-46D9-BD69-C1E45A4CD6A6*%
%TF.FilePolarity,Positive*%
%TF.FileFunction,Other,Top_3D_Body*%
%TF.Part,Single*%
G01*
G75*
%TA.AperFunction,NonConductor*%
%ADD59C,0.20000*%
D59*
X1750000Y1379725D02*
X2070000D01*
Y1109725D02*
Y1379725D01*
X1750000Y1109725D02*
X2070000D01*
X1750000D02*
Y1379725D01*
X3275000Y2370000D02*
Y2470000D01*
X3325000D01*
Y2370000D02*
Y2470000D01*
X3275000Y2370000D02*
X3325000D01*
X3142327D02*
Y2470000D01*
X3092327Y2370000D02*
X3142327D01*
X3092327D02*
Y2470000D01*
X3142327D01*
X2317075Y1152500D02*
Y1327500D01*
X2222075Y1152500D02*
X2317075D01*
X2222075D02*
Y1327500D01*
X2317075D01*
X2507500Y1152500D02*
Y1327500D01*
X2412500Y1152500D02*
X2507500D01*
X2412500D02*
Y1327500D01*
X2507500D01*
X1817925Y522500D02*
X1912925D01*
Y697500D01*
X1817925D02*
X1912925D01*
X1817925Y522500D02*
Y697500D01*
%TF.MD5,5be780dcc9265fe6fcf138e42f4ca13a*%
M02*
