M48
;Layer_Color=9474304
;FILE_FORMAT=4:4
METRIC,LZ
;TYPE=PLATED
T1F00S00C0.2000
T2F00S00C0.3000
T3F00S00C0.4000
T4F00S00C0.5000
T5F00S00C0.7620
T6F00S00C0.9000
%
T01
X00026Y00006
X00036
X00006Y00026
X00021Y00076
X00016Y00106
X00026
X00036
X00061Y00096
X00071
X00081
X00091
X00101
X00111
X00121
X00131
X00106Y00106
X00086
X00076Y00086
X00066
X0007475Y00063
X0008525
X00056Y00046
X00121Y00036
X00141
Y00016
X00136Y00006
X00126
X00116
X00106
X00096
X00121Y00016
X00111Y00136
X00141
X00081
X00061
X00152Y00141
X00151Y00096
X00146Y00046
X00156
X00166
X00176
X00186
X00196
X00191Y00036
Y00016
X00166Y00006
X00146
X00216
X00246
X00256
X00266
X00276
X00286
X00296
X00306
X00316
X00326
X00336
X00346
X00356
X00366
X00376
X00386
X00391Y00016
X00381
X00371
X00361
X00351
X00341
X00331
X00321
X00311
X00301
X00291
X00281
X00271
X00261
X00251
X00241
Y00036
X00251
X00261
X00271
X00281
X00301
X00311
X00321
X00331
X00336Y00046
X00346
X00351Y00056
X00341
X00331
X00326Y00066
X00336
X00346
X00356
X00366
X00381Y00056
X00391
X00386Y00046
X00376
X00381Y00036
X00391
X00386Y00026
X00376
X00366
X00356
X00361Y00036
X00371
X00351Y00096
X00341
X00331
X00321
X00335Y00111
X00332Y00132
X00307Y0013412
X00272Y00129
Y00141
X00271Y00096
X00281
X00291
X0024Y00094
X00246Y00117
X00227
X00208Y00124
X002Y00139
X00227Y00029
X00246Y00046
X00266
X00316Y00066
X00359Y00111
X00389Y00106
X00364Y00143
X00311149Y00145473
X0031Y00164
X00322
X00334Y00206
X00296Y00211
X0029Y00205
X00284Y00198
X00283Y00222
X00289Y00218
X0026575Y00222
X00251
Y0023675
X0023625Y00222
X00220108Y00225108
X0022Y00231
X00215592Y00213542
X00203Y00213
X00205Y00206
X00211Y00202
X00207Y00191
X00209Y00183
X00213Y0017199
X0022Y00173
X0021Y00165
X00204Y00167
X00186
X00194Y00159
X00177Y00144
X00174Y00179
X00176Y00189
X00177Y00199
X00184Y00203
X0016Y00208
X00165Y00213
X0014775Y00209
X00162Y00236
X00193Y00242
X00206Y00286
X00227Y00284
X00251
X00275Y00293
X00299Y00285
X00339Y0029
X00251Y0020725
X00258564Y00189976
X00243Y00189
X0023848Y00192876
X00228Y00193
X00225Y002
X00248Y00184
X00156Y00286
X00126Y00266
X00116
X00106
X00096
X00101Y00276
Y00256
X00119Y00252
X00118958Y002405
X00137Y0024
Y00253
X00080618Y00252549
X00081Y00243
X00081Y00276
X00051
X00031
Y00256
X00021
X00016Y00266
X00006
X00016Y00246
X00026
X00031Y00236
X00021
X00011
X00006543Y00218617
X00006Y00206
Y00186
X0002Y00186
X00028
X00039Y00195
X00051Y00196
X00061
X00071
X00079Y00192
Y00175
X00091Y00176
Y00156
X00086Y00146
X00096
X00106
X00127Y00151
X00121Y00176
X00116Y00186
X00126
X00142Y00182
X00099Y0021
X00069Y00214
X00066Y00206
X00056
X00046Y00218
X00031Y00216
X00021
X00016Y00166
X00006
X00011Y00156
X00021
X00016Y00146
X00026
X00036
X00046
X00041Y0016075
X00066Y00166
Y00146
X00076
X00006
T02
X00346985Y0029
T03
X00035Y00039
X00307Y00064
T04
X00341Y00224
X00028Y00265
T05
X00011Y00011
X00317Y00048
T06
X00168Y00284
X001934
X001426
X001172
X000918
X000664
X00041
X000156
M30
