%TF.GenerationSoftware,Altium Limited,Altium Designer,21.9.2 (33)*%
G04 Layer_Color=16711935*
%FSLAX45Y45*%
%MOMM*%
%TF.SameCoordinates,43275E26-CB7C-43E4-9740-FE9D7F4F9AB3*%
%TF.FilePolarity,Positive*%
%TF.FileFunction,Other,Mechanical_13*%
%TF.Part,Single*%
G01*
G75*
%TA.AperFunction,NonConductor*%
%ADD75C,0.10000*%
D75*
X1267500Y502500D02*
Y667500D01*
X1172500Y502500D02*
Y667500D01*
X1267500D01*
X1172500Y502500D02*
X1267500D01*
X992074Y667500D02*
X1087074D01*
X992074Y502500D02*
X1087074D01*
Y667500D01*
X992074Y502500D02*
Y667500D01*
X315798Y1152500D02*
Y1317500D01*
X220798Y1152500D02*
Y1317500D01*
X315798D01*
X220798Y1152500D02*
X315798D01*
X3060000Y1610000D02*
Y2110000D01*
X3380000Y1610000D02*
Y2110000D01*
X3060000Y1610000D02*
X3380000D01*
X3060000Y2110000D02*
X3380000D01*
X2332500Y1477500D02*
Y1642500D01*
X2427500Y1477500D02*
Y1642500D01*
X2332500Y1477500D02*
X2427500D01*
X2332500Y1642500D02*
X2427500D01*
X2247075Y1477500D02*
Y1642500D01*
X2152075Y1477500D02*
Y1642500D01*
X2247075D01*
X2152075Y1477500D02*
X2247075D01*
X1785000Y2275000D02*
X1935000D01*
X1785000D02*
Y2595000D01*
X1935000Y2275000D02*
Y2595000D01*
X1785000D02*
X1935000D01*
X847500Y1895525D02*
Y2200525D01*
X1152500Y1895525D02*
Y2200525D01*
X847500D02*
X1152500D01*
X847500Y1895525D02*
X1152500D01*
X1417500Y2382574D02*
Y2547575D01*
X1322500Y2382574D02*
Y2547575D01*
X1417500D01*
X1322500Y2382574D02*
X1417500D01*
X1237075D02*
Y2547575D01*
X1142075Y2382574D02*
Y2547575D01*
X1237075D01*
X1142075Y2382574D02*
X1237075D01*
X3180000Y1105000D02*
Y1375000D01*
X2960000Y1105000D02*
Y1375000D01*
X3180000D01*
X2960000Y1105000D02*
X3180000D01*
X670000Y87500D02*
Y357500D01*
X890000Y87500D02*
Y357500D01*
X670000Y87500D02*
X890000D01*
X670000Y357500D02*
X890000D01*
X350000Y852500D02*
X570000D01*
X350000Y582500D02*
X570000D01*
Y852500D01*
X350000Y582500D02*
Y852500D01*
X40373Y1152500D02*
X135373D01*
X40373Y1317500D02*
X135373D01*
X40373Y1152500D02*
Y1317500D01*
X135373Y1152500D02*
Y1317500D01*
X835425Y1595000D02*
Y1765000D01*
X745425Y1595000D02*
Y1765000D01*
X835425D01*
X745425Y1595000D02*
X835425D01*
X595000D02*
Y1765000D01*
X505000Y1595000D02*
Y1765000D01*
X595000D01*
X505000Y1595000D02*
X595000D01*
X1005000D02*
Y1765000D01*
X1095000Y1595000D02*
Y1765000D01*
X1005000Y1595000D02*
X1095000D01*
X1005000Y1765000D02*
X1095000D01*
X2516702Y525000D02*
X2606702D01*
X2516702Y695000D02*
X2606702D01*
X2516702Y525000D02*
Y695000D01*
X2606702Y525000D02*
Y695000D01*
X1605000Y745000D02*
X1695000D01*
X1605000Y915000D02*
X1695000D01*
X1605000Y745000D02*
Y915000D01*
X1695000Y745000D02*
Y915000D01*
X2464998Y2852816D02*
X2554998D01*
X2464998Y2682816D02*
X2554998D01*
Y2852816D01*
X2464998Y2682816D02*
Y2852816D01*
X2224573Y2685000D02*
Y2855000D01*
X2314572Y2685000D02*
Y2855000D01*
X2224573Y2685000D02*
X2314572D01*
X2224573Y2855000D02*
X2314572D01*
X2705424Y2852816D02*
X2795423D01*
X2705424Y2682816D02*
X2795423D01*
Y2852816D01*
X2705424Y2682816D02*
Y2852816D01*
X1575000Y2345000D02*
Y2515000D01*
X1665000Y2345000D02*
Y2515000D01*
X1575000Y2345000D02*
X1665000D01*
X1575000Y2515000D02*
X1665000D01*
X3395000Y1165000D02*
Y1335000D01*
X3305000Y1165000D02*
Y1335000D01*
X3395000D01*
X3305000Y1165000D02*
X3395000D01*
X3875851D02*
Y1335000D01*
X3785851Y1165000D02*
Y1335000D01*
X3875851D01*
X3785851Y1165000D02*
X3875851D01*
X3635425D02*
Y1335000D01*
X3545425Y1165000D02*
Y1335000D01*
X3635425D01*
X3545425Y1165000D02*
X3635425D01*
X1485000Y1115425D02*
X1575000D01*
X1485000Y1285425D02*
X1575000D01*
X1485000Y1115425D02*
Y1285425D01*
X1575000Y1115425D02*
Y1285425D01*
X914574Y1112500D02*
X1004574D01*
X914574Y1282500D02*
X1004574D01*
X914574Y1112500D02*
Y1282500D01*
X1004574Y1112500D02*
Y1282500D01*
X1245000Y1112500D02*
Y1282500D01*
X1155000Y1112500D02*
Y1282500D01*
X1245000D01*
X1155000Y1112500D02*
X1245000D01*
X674149D02*
X764149D01*
X674149Y1282500D02*
X764149D01*
X674149Y1112500D02*
Y1282500D01*
X764149Y1112500D02*
Y1282500D01*
X433724Y1112925D02*
X523723D01*
X433724Y1282925D02*
X523723D01*
X433724Y1112925D02*
Y1282925D01*
X523723Y1112925D02*
Y1282925D01*
X106000Y1020500D02*
X214000D01*
X106000Y839500D02*
X214000D01*
X106000D02*
Y1020500D01*
X214000Y839500D02*
Y1020500D01*
X1503724Y137500D02*
X1593724D01*
X1503724Y307500D02*
X1593724D01*
X1503724Y137500D02*
Y307500D01*
X1593724Y137500D02*
Y307500D01*
X2945849Y2696549D02*
Y2866549D01*
X3035849Y2696549D02*
Y2866549D01*
X2945849Y2696549D02*
X3035849D01*
X2945849Y2866549D02*
X3035849D01*
X3276275Y2696549D02*
Y2866549D01*
X3186275Y2696549D02*
Y2866549D01*
X3276275D01*
X3186275Y2696549D02*
X3276275D01*
X195000Y427500D02*
Y597500D01*
X105000Y427500D02*
Y597500D01*
X195000D01*
X105000Y427500D02*
X195000D01*
X2125851Y525000D02*
Y695000D01*
X2035851Y525000D02*
Y695000D01*
X2125851D01*
X2035851Y525000D02*
X2125851D01*
X2847127D02*
Y695000D01*
X2757127Y525000D02*
Y695000D01*
X2847127D01*
X2757127Y525000D02*
X2847127D01*
X2366276D02*
Y695000D01*
X2276276Y525000D02*
Y695000D01*
X2366276D01*
X2276276Y525000D02*
X2366276D01*
X455000Y92500D02*
Y262500D01*
X545000Y92500D02*
Y262500D01*
X455000Y92500D02*
X545000D01*
X455000Y262500D02*
X545000D01*
X1353298Y142500D02*
Y312500D01*
X1263298Y142500D02*
Y312500D01*
X1353298D01*
X1263298Y142500D02*
X1353298D01*
X1112873D02*
Y312500D01*
X1022873Y142500D02*
Y312500D01*
X1112873D01*
X1022873Y142500D02*
X1112873D01*
X2315000Y132500D02*
Y302500D01*
X2225000Y132500D02*
Y302500D01*
X2315000D01*
X2225000Y132500D02*
X2315000D01*
X1834149Y137500D02*
Y307500D01*
X1744149Y137500D02*
Y307500D01*
X1834149D01*
X1744149Y137500D02*
X1834149D01*
X2074574Y135000D02*
Y305000D01*
X1984575Y135000D02*
Y305000D01*
X2074574D01*
X1984575Y135000D02*
X2074574D01*
X1525000Y1935000D02*
Y2105000D01*
X1435000Y1935000D02*
Y2105000D01*
X1525000D01*
X1435000Y1935000D02*
X1525000D01*
%TF.MD5,290fef800b8b9dcc7fb35da99308936d*%
M02*
