%TF.GenerationSoftware,Altium Limited,Altium Designer,21.9.2 (33)*%
G04 Layer_Color=65535*
%FSLAX45Y45*%
%MOMM*%
%TF.SameCoordinates,43275E26-CB7C-43E4-9740-FE9D7F4F9AB3*%
%TF.FilePolarity,Positive*%
%TF.FileFunction,Legend,Top*%
%TF.Part,Single*%
G01*
G75*
%TA.AperFunction,NonConductor*%
%ADD60C,0.20000*%
%ADD62C,0.15300*%
%ADD63C,0.25400*%
%ADD73C,0.25000*%
%ADD74C,0.40000*%
%ADD75C,0.10000*%
%ADD76C,0.01000*%
G36*
X3441177Y465850D02*
X3433464Y504412D01*
X3431536Y510196D01*
X3572287Y512124D01*
X3574216Y502484D01*
X3570359Y490915D01*
X3562647Y456209D01*
X3445033Y454281D01*
X3443105Y463922D01*
X3441177Y465850D01*
D02*
G37*
G36*
X3641699Y839902D02*
X3647484Y834118D01*
X3651340Y818693D01*
Y791699D01*
Y787843D01*
X3647484Y556471D01*
X3641699Y550686D01*
X3626274Y546830D01*
X3364052Y550686D01*
X3358268Y556471D01*
X3354412Y571895D01*
X3358268Y834118D01*
X3364052Y839902D01*
X3379477Y843758D01*
X3641699Y839902D01*
D02*
G37*
G36*
X3475882Y878464D02*
X3431536Y880392D01*
X3435392Y895817D01*
X3445033Y936307D01*
X3562647Y934379D01*
X3566503Y918954D01*
X3574216Y880392D01*
X3479739Y878464D01*
X3475882D01*
D02*
G37*
%LPC*%
G36*
X3464314Y805196D02*
X3450817Y799412D01*
X3427680Y741569D01*
X3418039Y716503D01*
X3406470Y712647D01*
X3379477Y708791D01*
X3373693Y691438D01*
X3383333Y677941D01*
X3441177Y681797D01*
X3446961Y687582D01*
X3454673Y706863D01*
X3460457Y720359D01*
X3483595Y604673D01*
X3489379Y591176D01*
X3495163Y585392D01*
X3514444Y589249D01*
X3520229Y595033D01*
X3568431Y693366D01*
X3622418Y697222D01*
X3632059Y706863D01*
X3628203Y726144D01*
X3610850Y731928D01*
X3549150Y728072D01*
X3539510Y718431D01*
X3510588Y662516D01*
X3491307Y758922D01*
X3487451Y774346D01*
X3485523Y791699D01*
X3483595Y793628D01*
X3479739Y801340D01*
X3464314Y805196D01*
D02*
G37*
%LPD*%
D60*
X2060236Y1703000D02*
G03*
X2060236Y1703000I-2236J0D01*
G01*
X2750000Y1980000D02*
Y2364999D01*
X2655000Y2460000D02*
X2750000Y2364999D01*
X2265000Y2460000D02*
X2655000D01*
X2265000Y1980000D02*
X2750000D01*
X2265000D02*
Y2460000D01*
X1803000Y2011000D02*
X2035000D01*
X1803000Y1728000D02*
X2035000D01*
Y2011000D01*
X1803000Y1728000D02*
Y2011000D01*
X3200000Y2110000D02*
X3240000D01*
X3200000Y1610000D02*
X3240000D01*
X1785000Y2400000D02*
Y2470000D01*
X1935000Y2400000D02*
Y2470000D01*
X1750000Y1379725D02*
X2070000D01*
Y1109725D02*
Y1122225D01*
Y1367225D02*
Y1379725D01*
X1750000Y1109725D02*
X2070000D01*
X1750000D02*
Y1122225D01*
Y1367225D02*
Y1379725D01*
X2511300Y825700D02*
Y1054300D01*
X2028700D02*
X2511300D01*
X2028700Y825700D02*
X2511300D01*
X2028700D02*
Y1054300D01*
X3368624Y2346376D02*
Y2493624D01*
X3231376Y2346376D02*
Y2493624D01*
X3048704Y2346376D02*
Y2493624D01*
X3185951Y2346376D02*
Y2493624D01*
X2342075Y1152500D02*
Y1327500D01*
X2197075Y1152500D02*
Y1327500D01*
X2532500Y1152500D02*
Y1327500D01*
X2387500Y1152500D02*
Y1327500D01*
X1937925Y522500D02*
Y697500D01*
X1792925Y522500D02*
Y697500D01*
X29000Y2713000D02*
X2061000D01*
Y2967000D01*
X29000D02*
X2061000D01*
X29000Y2713000D02*
Y2967000D01*
X226200Y825700D02*
Y1034300D01*
X93800Y825700D02*
Y1034300D01*
Y825700D02*
X226200D01*
X93800Y1034300D02*
X226200D01*
D62*
X3101961Y231961D02*
Y315268D01*
Y281945D01*
X3085300D01*
X3118622D01*
X3101961D01*
Y315268D01*
X3118622Y331929D01*
X3218590Y231961D02*
X3185268D01*
X3168606Y248623D01*
Y281945D01*
X3185268Y298606D01*
X3218590D01*
X3235251Y281945D01*
Y265284D01*
X3168606D01*
X3318558Y231961D02*
X3285235D01*
X3268574Y248623D01*
Y281945D01*
X3285235Y298606D01*
X3318558D01*
X3335219Y281945D01*
Y265284D01*
X3268574D01*
X3368542Y231961D02*
X3401864D01*
X3385203D01*
Y331929D01*
X3368542D01*
X3518493Y231961D02*
X3451848D01*
X3518493Y298606D01*
Y315268D01*
X3501832Y331929D01*
X3468510D01*
X3451848Y315268D01*
X3551816D02*
X3568477Y331929D01*
X3601800D01*
X3618461Y315268D01*
Y248623D01*
X3601800Y231961D01*
X3568477D01*
X3551816Y248623D01*
Y315268D01*
X3718429Y231961D02*
X3651784D01*
X3718429Y298606D01*
Y315268D01*
X3701768Y331929D01*
X3668445D01*
X3651784Y315268D01*
X3818397Y231961D02*
X3751752D01*
X3818397Y298606D01*
Y315268D01*
X3801736Y331929D01*
X3768413D01*
X3751752Y315268D01*
X3851720Y215300D02*
X3918365D01*
X2575300Y178590D02*
Y78622D01*
X2625284D01*
X2641945Y95284D01*
Y111945D01*
Y128606D01*
X2625284Y145267D01*
X2575300D01*
X2691929D02*
X2725252D01*
X2741913Y128606D01*
Y78622D01*
X2691929D01*
X2675268Y95284D01*
X2691929Y111945D01*
X2741913D01*
X2775235Y145267D02*
Y78622D01*
Y111945D01*
X2791897Y128606D01*
X2808558Y145267D01*
X2825219D01*
X2875203Y178590D02*
Y78622D01*
X2925187D01*
X2941848Y95284D01*
Y111945D01*
Y128606D01*
X2925187Y145267D01*
X2875203D01*
X2991832D02*
X3025155D01*
X3041816Y128606D01*
Y78622D01*
X2991832D01*
X2975171Y95284D01*
X2991832Y111945D01*
X3041816D01*
X3075139Y61961D02*
X3141784D01*
X3175107Y178590D02*
Y78622D01*
X3225091D01*
X3241752Y95284D01*
Y111945D01*
Y128606D01*
X3225091Y145267D01*
X3175107D01*
X3291736Y78622D02*
X3325058D01*
X3341720Y95284D01*
Y128606D01*
X3325058Y145267D01*
X3291736D01*
X3275074Y128606D01*
Y95284D01*
X3291736Y78622D01*
X3375042Y145267D02*
Y95284D01*
X3391704Y78622D01*
X3441687D01*
Y61961D01*
X3425026Y45300D01*
X3408365D01*
X3441687Y78622D02*
Y145267D01*
X3491671D02*
X3524994D01*
X3541655Y128606D01*
Y78622D01*
X3491671D01*
X3475010Y95284D01*
X3491671Y111945D01*
X3541655D01*
X3574978Y145267D02*
Y78622D01*
Y111945D01*
X3591639Y128606D01*
X3608300Y145267D01*
X3624962D01*
X3674946Y78622D02*
X3708268D01*
X3691607D01*
Y145267D01*
X3674946D01*
X3758252D02*
X3824897D01*
X3758252Y78622D01*
X3824897D01*
X3874881D02*
X3908204D01*
X3924865Y95284D01*
Y128606D01*
X3908204Y145267D01*
X3874881D01*
X3858220Y128606D01*
Y95284D01*
X3874881Y78622D01*
X113355Y1149984D02*
Y1066678D01*
X130016Y1050016D01*
X163339D01*
X180000Y1066678D01*
Y1149984D01*
X213323Y1050016D02*
X246645D01*
X229984D01*
Y1149984D01*
X213323Y1133323D01*
X1776694Y2739984D02*
Y2723322D01*
X1810016Y2690000D01*
X1843339Y2723322D01*
Y2739984D01*
X1810016Y2690000D02*
Y2640016D01*
X1943307D02*
X1876661D01*
X1943307Y2706661D01*
Y2723322D01*
X1926645Y2739984D01*
X1893323D01*
X1876661Y2723322D01*
X3263355Y2279984D02*
Y2263323D01*
X3296677Y2230000D01*
X3330000Y2263323D01*
Y2279984D01*
X3296677Y2230000D02*
Y2180016D01*
X3363323D02*
X3396645D01*
X3379984D01*
Y2279984D01*
X3363323Y2263323D01*
X1816694Y2139984D02*
Y2056677D01*
X1833355Y2040016D01*
X1866677D01*
X1883339Y2056677D01*
Y2139984D01*
X1916661Y2123322D02*
X1933323Y2139984D01*
X1966645D01*
X1983306Y2123322D01*
Y2106661D01*
X1966645Y2090000D01*
X1949984D01*
X1966645D01*
X1983306Y2073339D01*
Y2056677D01*
X1966645Y2040016D01*
X1933323D01*
X1916661Y2056677D01*
X716694Y869984D02*
Y786677D01*
X733355Y770016D01*
X766677D01*
X783339Y786677D01*
Y869984D01*
X883306Y770016D02*
X816661D01*
X883306Y836661D01*
Y853322D01*
X866645Y869984D01*
X833323D01*
X816661Y853322D01*
X1860016Y1503323D02*
X1843355Y1519984D01*
X1810032D01*
X1793371Y1503323D01*
Y1486661D01*
X1810032Y1470000D01*
X1843355D01*
X1860016Y1453339D01*
Y1436678D01*
X1843355Y1420016D01*
X1810032D01*
X1793371Y1436678D01*
X1893339Y1519984D02*
Y1420016D01*
X1926661Y1453339D01*
X1959984Y1420016D01*
Y1519984D01*
X1993307Y1420016D02*
X2026629D01*
X2009968D01*
Y1519984D01*
X1993307Y1503323D01*
X170048Y2093322D02*
X153387Y2109984D01*
X120065D01*
X103403Y2093322D01*
Y2076661D01*
X120065Y2060000D01*
X153387D01*
X170048Y2043339D01*
Y2026677D01*
X153387Y2010016D01*
X120065D01*
X103403Y2026677D01*
X270016Y2093322D02*
X253355Y2109984D01*
X220033D01*
X203371Y2093322D01*
Y2026677D01*
X220033Y2010016D01*
X253355D01*
X270016Y2026677D01*
Y2060000D01*
X236694D01*
X303339Y2010016D02*
Y2109984D01*
X353323D01*
X369984Y2093322D01*
Y2060000D01*
X353323Y2043339D01*
X303339D01*
X469952Y2093322D02*
X453291Y2109984D01*
X419968D01*
X403307Y2093322D01*
Y2026677D01*
X419968Y2010016D01*
X453291D01*
X469952Y2026677D01*
X503275Y2010016D02*
X536597D01*
X519936D01*
Y2109984D01*
X503275Y2093322D01*
X1306694Y2610016D02*
Y2709984D01*
X1356677D01*
X1373339Y2693323D01*
Y2660000D01*
X1356677Y2643339D01*
X1306694D01*
X1340016D02*
X1373339Y2610016D01*
X1406661Y2693323D02*
X1423323Y2709984D01*
X1456645D01*
X1473306Y2693323D01*
Y2676661D01*
X1456645Y2660000D01*
X1473306Y2643339D01*
Y2626677D01*
X1456645Y2610016D01*
X1423323D01*
X1406661Y2626677D01*
Y2643339D01*
X1423323Y2660000D01*
X1406661Y2676661D01*
Y2693323D01*
X1423323Y2660000D02*
X1456645D01*
X1086694Y2610016D02*
Y2709984D01*
X1136677D01*
X1153339Y2693323D01*
Y2660000D01*
X1136677Y2643339D01*
X1086694D01*
X1120016D02*
X1153339Y2610016D01*
X1186661Y2709984D02*
X1253306D01*
Y2693323D01*
X1186661Y2626677D01*
Y2610016D01*
X2096694Y1710016D02*
Y1809984D01*
X2146677D01*
X2163339Y1793323D01*
Y1760000D01*
X2146677Y1743339D01*
X2096694D01*
X2130016D02*
X2163339Y1710016D01*
X2263306Y1809984D02*
X2229984Y1793323D01*
X2196661Y1760000D01*
Y1726678D01*
X2213323Y1710016D01*
X2246645D01*
X2263306Y1726678D01*
Y1743339D01*
X2246645Y1760000D01*
X2196661D01*
X2326694Y1710016D02*
Y1809984D01*
X2376677D01*
X2393339Y1793323D01*
Y1760000D01*
X2376677Y1743339D01*
X2326694D01*
X2360016D02*
X2393339Y1710016D01*
X2493306Y1809984D02*
X2426661D01*
Y1760000D01*
X2459984Y1776661D01*
X2476645D01*
X2493306Y1760000D01*
Y1726678D01*
X2476645Y1710016D01*
X2443323D01*
X2426661Y1726678D01*
X1166694Y730016D02*
Y829984D01*
X1216678D01*
X1233339Y813322D01*
Y780000D01*
X1216678Y763339D01*
X1166694D01*
X1200016D02*
X1233339Y730016D01*
X1316645D02*
Y829984D01*
X1266661Y780000D01*
X1333306D01*
X936694Y730016D02*
Y829984D01*
X986677D01*
X1003339Y813322D01*
Y780000D01*
X986677Y763339D01*
X936694D01*
X970016D02*
X1003339Y730016D01*
X1036661Y813322D02*
X1053323Y829984D01*
X1086645D01*
X1103306Y813322D01*
Y796661D01*
X1086645Y780000D01*
X1069984D01*
X1086645D01*
X1103306Y763339D01*
Y746677D01*
X1086645Y730016D01*
X1053323D01*
X1036661Y746677D01*
X26694Y1380016D02*
Y1479984D01*
X76678D01*
X93339Y1463322D01*
Y1430000D01*
X76678Y1413339D01*
X26694D01*
X60016D02*
X93339Y1380016D01*
X193306D02*
X126661D01*
X193306Y1446661D01*
Y1463322D01*
X176645Y1479984D01*
X143323D01*
X126661Y1463322D01*
X243355Y1380016D02*
Y1479984D01*
X293339D01*
X310000Y1463322D01*
Y1430000D01*
X293339Y1413339D01*
X243355D01*
X276677D02*
X310000Y1380016D01*
X343323D02*
X376645D01*
X359984D01*
Y1479984D01*
X343323Y1463322D01*
X2343387Y2510016D02*
Y2609984D01*
X2376710Y2576661D01*
X2410032Y2609984D01*
Y2510016D01*
X2510000Y2593322D02*
X2493339Y2609984D01*
X2460016D01*
X2443355Y2593322D01*
Y2526677D01*
X2460016Y2510016D01*
X2493339D01*
X2510000Y2526677D01*
X2543323Y2609984D02*
Y2526677D01*
X2559984Y2510016D01*
X2593307D01*
X2609968Y2526677D01*
Y2609984D01*
X2643291Y2510016D02*
X2676613D01*
X2659952D01*
Y2609984D01*
X2643291Y2593322D01*
X1873355Y940016D02*
Y1039984D01*
X1906677Y1006661D01*
X1940000Y1039984D01*
Y940016D01*
X1973323D02*
X2006645D01*
X1989984D01*
Y1039984D01*
X1973323Y1023323D01*
X1776694Y839984D02*
Y740016D01*
X1843339D01*
X1876661Y823322D02*
X1893323Y839984D01*
X1926645D01*
X1943307Y823322D01*
Y806661D01*
X1926645Y790000D01*
X1943307Y773339D01*
Y756677D01*
X1926645Y740016D01*
X1893323D01*
X1876661Y756677D01*
Y773339D01*
X1893323Y790000D01*
X1876661Y806661D01*
Y823322D01*
X1893323Y790000D02*
X1926645D01*
X3236694Y2629984D02*
Y2530016D01*
X3303339D01*
X3336661Y2629984D02*
X3403306D01*
Y2613322D01*
X3336661Y2546677D01*
Y2530016D01*
X3006694Y2629984D02*
Y2530016D01*
X3073339D01*
X3173306Y2629984D02*
X3139984Y2613322D01*
X3106661Y2580000D01*
Y2546677D01*
X3123323Y2530016D01*
X3156645D01*
X3173306Y2546677D01*
Y2563339D01*
X3156645Y2580000D01*
X3106661D01*
X2406694Y1469984D02*
Y1370016D01*
X2473339D01*
X2573307Y1469984D02*
X2506661D01*
Y1420000D01*
X2539984Y1436661D01*
X2556645D01*
X2573307Y1420000D01*
Y1386677D01*
X2556645Y1370016D01*
X2523323D01*
X2506661Y1386677D01*
X2986694Y1509984D02*
Y1410016D01*
X3053339D01*
X3136645D02*
Y1509984D01*
X3086661Y1460000D01*
X3153306D01*
X2156694Y1469984D02*
Y1370016D01*
X2223339D01*
X2256661Y1453322D02*
X2273323Y1469984D01*
X2306645D01*
X2323307Y1453322D01*
Y1436661D01*
X2306645Y1420000D01*
X2289984D01*
X2306645D01*
X2323307Y1403339D01*
Y1386677D01*
X2306645Y1370016D01*
X2273323D01*
X2256661Y1386677D01*
X696694Y489984D02*
Y390016D01*
X763339D01*
X863306D02*
X796661D01*
X863306Y456661D01*
Y473322D01*
X846645Y489984D01*
X813323D01*
X796661Y473322D01*
X393355Y989984D02*
Y890016D01*
X460000D01*
X493323D02*
X526645D01*
X509984D01*
Y989984D01*
X493323Y973322D01*
X63403Y2699984D02*
Y2600016D01*
X113387D01*
X130048Y2616678D01*
Y2633339D01*
X113387Y2650000D01*
X63403D01*
X113387D01*
X130048Y2666661D01*
Y2683323D01*
X113387Y2699984D01*
X63403D01*
X163371D02*
Y2616678D01*
X180032Y2600016D01*
X213355D01*
X230016Y2616678D01*
Y2699984D01*
X263339D02*
X329984D01*
Y2683323D01*
X263339Y2616678D01*
Y2600016D01*
X329984D01*
X363307Y2699984D02*
X429952D01*
Y2683323D01*
X363307Y2616678D01*
Y2600016D01*
X429952D01*
X463274D02*
X496597D01*
X479936D01*
Y2699984D01*
X463274Y2683323D01*
X1193387Y2289984D02*
Y2190016D01*
X1243371D01*
X1260032Y2206678D01*
Y2223339D01*
X1243371Y2240000D01*
X1193387D01*
X1243371D01*
X1260032Y2256661D01*
Y2273323D01*
X1243371Y2289984D01*
X1193387D01*
X1293355Y2190016D02*
Y2289984D01*
X1326678Y2256661D01*
X1360000Y2289984D01*
Y2190016D01*
X1459968Y2289984D02*
X1393323D01*
Y2190016D01*
X1459968D01*
X1393323Y2240000D02*
X1426645D01*
X1493291Y2190016D02*
X1526613D01*
X1509952D01*
Y2289984D01*
X1493291Y2273323D01*
X1183403Y1780016D02*
Y1846661D01*
X1216726Y1879984D01*
X1250048Y1846661D01*
Y1780016D01*
Y1830000D01*
X1183403D01*
X1283371Y1879984D02*
Y1780016D01*
X1333355D01*
X1350016Y1796677D01*
Y1863322D01*
X1333355Y1879984D01*
X1283371D01*
X1383339D02*
X1449984Y1780016D01*
Y1879984D02*
X1383339Y1780016D01*
X1483307Y1879984D02*
Y1780016D01*
X1549952D01*
X1583274D02*
X1616597D01*
X1599936D01*
Y1879984D01*
X1583274Y1863322D01*
X646710Y2679984D02*
Y2580016D01*
X713355D01*
X813322Y2679984D02*
X746677D01*
Y2580016D01*
X813322D01*
X746677Y2630000D02*
X780000D01*
X846645Y2679984D02*
Y2580016D01*
X896629D01*
X913290Y2596678D01*
Y2663323D01*
X896629Y2679984D01*
X846645D01*
D63*
X3060000Y1792700D02*
Y1927300D01*
X3380000Y1792700D02*
Y1927300D01*
X128933Y2211575D02*
X230533D01*
X179733Y2160775D02*
Y2262375D01*
D73*
X3112500Y2205000D02*
G03*
X3112500Y2205000I-12500J0D01*
G01*
X1064500Y2175025D02*
G03*
X1064500Y2175025I-1000J0D01*
G01*
X3312500Y2281376D02*
G03*
X3312500Y2281376I-12500J0D01*
G01*
X3129827Y2558624D02*
G03*
X3129827Y2558624I-12500J0D01*
G01*
D74*
X322600Y2045000D02*
G03*
X322600Y2045000I-100J0D01*
G01*
X95000Y1737500D02*
Y1982500D01*
X385000Y1737500D02*
Y1982500D01*
D75*
X364433Y2363975D02*
G03*
X364433Y2363975I-45000J0D01*
G01*
X1627500Y1465000D02*
Y1755000D01*
X1312500D02*
X1627500D01*
X1312500Y1465000D02*
Y1755000D01*
Y1465000D02*
X1627500D01*
X656179Y2395491D02*
Y2555491D01*
Y2395491D02*
X816178D01*
Y2555491D01*
X656179D02*
X816178D01*
X834900Y1882925D02*
Y2213125D01*
X1165100Y1882925D02*
Y2213125D01*
X834900D02*
X1165100D01*
X834900Y1882925D02*
X1165100D01*
X573433Y2122675D02*
Y2541775D01*
X522633Y2592575D02*
X573433Y2541775D01*
X52733Y2592575D02*
X522633D01*
X52733Y2122675D02*
Y2592575D01*
Y2122675D02*
X573433D01*
X3494849Y1475000D02*
Y2945000D01*
Y1477300D02*
X3496349Y1475800D01*
X3494849Y1475000D02*
X4014849D01*
Y2995000D01*
X3494849D02*
X4014749D01*
X3494849Y2945000D02*
Y2994200D01*
X264299Y831099D02*
Y824435D01*
X257635D01*
Y831099D01*
X264299D01*
D76*
X701000Y577950D02*
Y750000D01*
Y510000D02*
Y610450D01*
Y510000D02*
X896000D01*
Y750000D01*
X701000D02*
X896000D01*
X1027108Y2023629D02*
X1037104D01*
Y2028628D01*
X1035438Y2030294D01*
X1033772D01*
X1032106Y2028628D01*
Y2023629D01*
Y2028628D01*
X1030440Y2030294D01*
X1028774D01*
X1027108Y2028628D01*
Y2023629D01*
X1037104Y2033626D02*
X1027108D01*
X1030440Y2036958D01*
X1027108Y2040290D01*
X1037104D01*
X1027108Y2050287D02*
Y2043623D01*
X1037104D01*
Y2050287D01*
X1032106Y2043623D02*
Y2046955D01*
X1027108Y2060284D02*
X1028774Y2056951D01*
X1032106Y2053619D01*
X1035438D01*
X1037104Y2055285D01*
Y2058618D01*
X1035438Y2060284D01*
X1033772D01*
X1032106Y2058618D01*
Y2053619D01*
X1028774Y2063616D02*
X1027108Y2065282D01*
Y2068614D01*
X1028774Y2070280D01*
X1030440D01*
X1032106Y2068614D01*
X1033772Y2070280D01*
X1035438D01*
X1037104Y2068614D01*
Y2065282D01*
X1035438Y2063616D01*
X1033772D01*
X1032106Y2065282D01*
X1030440Y2063616D01*
X1028774D01*
X1032106Y2065282D02*
Y2068614D01*
X1028774Y2073613D02*
X1027108Y2075279D01*
Y2078611D01*
X1028774Y2080277D01*
X1035438D01*
X1037104Y2078611D01*
Y2075279D01*
X1035438Y2073613D01*
X1028774D01*
%TF.MD5,4b2414074b7002acc776fcc6c3cbe363*%
M02*
